<?xml version="1.0" encoding="UTF-8" standalone="no"?>
<svg xmlns:xlink="http://www.w3.org/1999/xlink" height="332.2px" width="332.2px" xmlns="http://www.w3.org/2000/svg">
  <g transform="matrix(1.0, 0.0, 0.0, 1.0, 166.1, 166.1)">
    <path d="M-38.25 0.0 Q-38.25 -15.85 -27.05 -27.05 -15.85 -38.25 0.0 -38.25 15.85 -38.25 27.05 -27.05 38.25 -15.85 38.25 0.0 38.25 15.85 27.05 27.05 15.85 38.25 0.0 38.25 -15.85 38.25 -27.05 27.05 -38.25 15.85 -38.25 0.0 -38.25 -15.85 -27.05 -27.05 -15.85 -38.25 0.0 -38.25 15.85 -38.25 27.05 -27.05 38.25 -15.85 38.25 0.0 38.25 15.85 27.05 27.05 15.85 38.25 0.0 38.25 -15.85 38.25 -27.05 27.05 -38.25 15.85 -38.25 0.0" fill="none" stroke="#ffffff" stroke-linecap="round" stroke-linejoin="round" stroke-width="4.0">
      <animate attributeName="stroke" dur="2s" repeatCount="indefinite" values="#ffffff;#ffffff"/>
      <animate attributeName="stroke-width" dur="2s" repeatCount="indefinite" values="4.0;4.0"/>
      <animate attributeName="fill-opacity" dur="2s" repeatCount="indefinite" values="1.0;1.0"/>
      <animate attributeName="d" dur="2s" repeatCount="indefinite" values="M-38.25 0.0 Q-38.25 -15.85 -27.05 -27.05 -15.85 -38.25 0.0 -38.25 15.85 -38.25 27.05 -27.05 38.25 -15.85 38.25 0.0 38.25 15.85 27.05 27.05 15.85 38.25 0.0 38.25 -15.85 38.25 -27.05 27.05 -38.25 15.85 -38.25 0.0 -38.25 -15.85 -27.05 -27.05 -15.85 -38.25 0.0 -38.25 15.85 -38.25 27.05 -27.05 38.25 -15.85 38.25 0.0 38.25 15.85 27.05 27.05 15.85 38.25 0.0 38.25 -15.85 38.25 -27.05 27.05 -38.25 15.85 -38.25 0.0;M-164.1 0.0 Q-164.1 -68.0 -116.05 -116.05 -68.0 -164.1 0.0 -164.1 68.0 -164.1 116.05 -116.05 164.1 -68.0 164.1 0.0 164.1 68.0 116.05 116.05 68.0 164.1 0.0 164.1 -68.0 164.1 -116.05 116.05 -164.1 68.0 -164.1 0.0 -164.1 -68.0 -116.05 -116.05 -68.0 -164.1 0.0 -164.1 68.0 -164.1 116.05 -116.05 164.1 -68.0 164.1 0.0 164.1 68.0 116.05 116.05 68.0 164.1 0.0 164.1 -68.0 164.1 -116.05 116.05 -164.1 68.0 -164.1 0.0"/>
    </path>
  </g>
</svg>
