<?xml version="1.0" encoding="UTF-8" standalone="no"?>
<svg xmlns:xlink="http://www.w3.org/1999/xlink" height="10.0px" width="10.0px" xmlns="http://www.w3.org/2000/svg">
  <g transform="matrix(1.0, 0.0, 0.0, 1.0, 5.0, 5.0)">
    <path d="M-5.0 0.0 Q-5.0 2.05 -3.55 3.55 -2.05 5.0 0.0 5.0 2.05 5.0 3.55 3.55 5.0 2.05 5.0 0.0 5.0 -2.05 3.55 -3.55 2.05 -5.0 0.0 -5.0 -2.05 -5.0 -3.55 -3.55 -5.0 -2.05 -5.0 0.0" fill="#ffffff" fill-opacity="0.0" fill-rule="evenodd" stroke="none">
      <animate attributeName="fill" dur="2s" repeatCount="indefinite" values="#ffffff;#ffffff"/>
      <animate attributeName="fill-opacity" dur="2s" repeatCount="indefinite" values="0.0;1.0"/>
      <animate attributeName="d" dur="2s" repeatCount="indefinite" values="M-5.0 0.0 Q-5.0 2.05 -3.55 3.55 -2.05 5.0 0.0 5.0 2.05 5.0 3.55 3.55 5.0 2.05 5.0 0.0 5.0 -2.05 3.55 -3.55 2.05 -5.0 0.0 -5.0 -2.05 -5.0 -3.55 -3.55 -5.0 -2.05 -5.0 0.0;M-5.0 0.0 Q-5.0 2.05 -3.55 3.55 -2.05 5.0 0.0 5.0 2.05 5.0 3.55 3.55 5.0 2.05 5.0 0.0 5.0 -2.05 3.55 -3.55 2.05 -5.0 0.0 -5.0 -2.05 -5.0 -3.55 -3.55 -5.0 -2.05 -5.0 0.0"/>
    </path>
    <path d="M-5.0 0.0 Q-5.0 -2.05 -3.55 -3.55 -2.05 -5.0 0.0 -5.0 2.05 -5.0 3.55 -3.55 5.0 -2.05 5.0 0.0 5.0 2.05 3.55 3.55 2.05 5.0 0.0 5.0 -2.05 5.0 -3.55 3.55 -5.0 2.05 -5.0 0.0" fill="none" stroke="#000000" stroke-linecap="round" stroke-linejoin="round" stroke-opacity="0.0" stroke-width="1.0">
      <animate attributeName="stroke" dur="2s" repeatCount="indefinite" values="#000000;#000001"/>
      <animate attributeName="stroke-width" dur="2s" repeatCount="indefinite" values="0.0;0.0"/>
      <animate attributeName="fill-opacity" dur="2s" repeatCount="indefinite" values="0.0;0.0"/>
      <animate attributeName="d" dur="2s" repeatCount="indefinite" values="M-5.0 0.0 Q-5.0 -2.05 -3.55 -3.55 -2.05 -5.0 0.0 -5.0 2.05 -5.0 3.55 -3.55 5.0 -2.05 5.0 0.0 5.0 2.05 3.55 3.55 2.05 5.0 0.0 5.0 -2.05 5.0 -3.55 3.55 -5.0 2.05 -5.0 0.0;M-5.0 0.0 Q-5.0 -2.05 -3.55 -3.55 -2.05 -5.0 0.0 -5.0 2.05 -5.0 3.55 -3.55 5.0 -2.05 5.0 0.0 5.0 2.05 3.55 3.55 2.05 5.0 0.0 5.0 -2.05 5.0 -3.55 3.55 -5.0 2.05 -5.0 0.0"/>
    </path>
  </g>
</svg>
