<?xml version="1.0" encoding="UTF-8" standalone="no"?>
<svg xmlns:xlink="http://www.w3.org/1999/xlink" height="313.15px" width="457.25px" xmlns="http://www.w3.org/2000/svg">
  <g transform="matrix(1.0, 0.0, 0.0, 1.0, 227.25, 176.0)">
    <path d="M215.25 -79.95 L215.75 -70.65 Q221.25 -70.45 226.7 -70.25 L226.3 -80.05 Q220.75 -80.0 215.25 -79.95 M-48.1 -170.0 Q-45.1 -165.75 -42.1 -161.5 L-39.9 -158.2 -31.8 -163.55 -34.05 -167.1 Q-37.05 -171.55 -40.0 -176.0 L-48.1 -170.0 M-227.25 125.95 L-227.25 137.15 Q-220.55 134.4 -214.15 130.75 L-218.75 122.05 Q-223.0 124.0 -227.25 125.95" fill="#ffffff" fill-rule="evenodd" stroke="none">
      <animate attributeName="fill" dur="2s" repeatCount="indefinite" values="#ffffff;#ffffff"/>
      <animate attributeName="fill-opacity" dur="2s" repeatCount="indefinite" values="1.0;1.0"/>
      <animate attributeName="d" dur="2s" repeatCount="indefinite" values="M215.25 -79.95 L215.75 -70.65 Q221.25 -70.45 226.7 -70.25 L226.3 -80.05 Q220.75 -80.0 215.25 -79.95 M-48.1 -170.0 Q-45.1 -165.75 -42.1 -161.5 L-39.9 -158.2 -31.8 -163.55 -34.05 -167.1 Q-37.05 -171.55 -40.0 -176.0 L-48.1 -170.0 M-227.25 125.95 L-227.25 137.15 Q-220.55 134.4 -214.15 130.75 L-218.75 122.05 Q-223.0 124.0 -227.25 125.95;M207.25 -79.6 L207.9 -70.5 Q219.05 -70.95 230.0 -70.0 L230.0 -80.0 Q218.5 -80.3 207.25 -79.6 M-48.1 -170.0 Q-42.3 -162.15 -37.2 -154.05 L-34.8 -150.15 -27.0 -155.4 -29.45 -159.6 Q-34.4 -167.95 -40.0 -176.0 L-48.1 -170.0 M-227.25 125.95 L-227.25 137.15 Q-214.75 132.0 -203.2 123.75 L-208.95 116.35 Q-217.75 122.05 -227.25 125.95"/>
    </path>
    <path d="M-227.25 125.95 Q-223.0 124.0 -218.75 122.05 L-214.15 130.75 Q-220.55 134.4 -227.25 137.15 L-227.25 125.95 M-48.1 -170.0 L-40.0 -176.0 Q-37.05 -171.55 -34.05 -167.1 L-31.8 -163.55 -39.9 -158.2 -42.1 -161.5 Q-45.1 -165.75 -48.1 -170.0 M215.25 -79.95 Q220.75 -80.0 226.3 -80.05 L226.7 -70.25 Q221.25 -70.45 215.75 -70.65 L215.25 -79.95" fill="none" stroke="#000000" stroke-linecap="round" stroke-linejoin="round" stroke-opacity="0.0" stroke-width="1.0">
      <animate attributeName="stroke" dur="2s" repeatCount="indefinite" values="#000000;#000001"/>
      <animate attributeName="stroke-width" dur="2s" repeatCount="indefinite" values="0.0;0.0"/>
      <animate attributeName="fill-opacity" dur="2s" repeatCount="indefinite" values="0.0;0.0"/>
      <animate attributeName="d" dur="2s" repeatCount="indefinite" values="M-227.25 125.95 Q-223.0 124.0 -218.75 122.05 L-214.15 130.75 Q-220.55 134.4 -227.25 137.15 L-227.25 125.95 M-48.1 -170.0 L-40.0 -176.0 Q-37.05 -171.55 -34.05 -167.1 L-31.8 -163.55 -39.9 -158.2 -42.1 -161.5 Q-45.1 -165.75 -48.1 -170.0 M215.25 -79.95 Q220.75 -80.0 226.3 -80.05 L226.7 -70.25 Q221.25 -70.45 215.75 -70.65 L215.25 -79.95;M-227.25 125.95 Q-217.75 122.05 -208.95 116.35 L-203.2 123.75 Q-214.75 132.0 -227.25 137.15 L-227.25 125.95 M-48.1 -170.0 L-40.0 -176.0 Q-34.4 -167.95 -29.45 -159.6 L-27.0 -155.4 -34.8 -150.15 -37.2 -154.05 Q-42.3 -162.15 -48.1 -170.0 M207.25 -79.6 Q218.5 -80.3 230.0 -80.0 L230.0 -70.0 Q219.05 -70.95 207.9 -70.5 L207.25 -79.6"/>
    </path>
  </g>
</svg>
