<?xml version="1.0" encoding="UTF-8" standalone="no"?>
<svg xmlns:xlink="http://www.w3.org/1999/xlink" height="313.15px" width="457.25px" xmlns="http://www.w3.org/2000/svg">
  <g transform="matrix(1.0, 0.0, 0.0, 1.0, 227.25, 176.0)">
    <path d="M207.25 -79.6 L207.9 -70.5 Q219.05 -70.95 230.0 -70.0 L230.0 -80.0 Q218.5 -80.3 207.25 -79.6 M-48.1 -170.0 Q-42.3 -162.15 -37.2 -154.05 L-34.8 -150.15 Q-30.9 -152.8 -27.0 -155.4 L-29.45 -159.6 Q-34.4 -167.95 -40.0 -176.0 L-48.1 -170.0 M-227.25 125.95 L-227.25 137.15 Q-214.75 132.0 -203.2 123.75 L-208.95 116.35 Q-217.75 122.05 -227.25 125.95" fill="#ffffff" fill-rule="evenodd" stroke="none">
      <animate attributeName="fill" dur="2s" repeatCount="indefinite" values="#ffffff;#ffffff"/>
      <animate attributeName="fill-opacity" dur="2s" repeatCount="indefinite" values="1.0;1.0"/>
      <animate attributeName="d" dur="2s" repeatCount="indefinite" values="M207.25 -79.6 L207.9 -70.5 Q219.05 -70.95 230.0 -70.0 L230.0 -80.0 Q218.5 -80.3 207.25 -79.6 M-48.1 -170.0 Q-42.3 -162.15 -37.2 -154.05 L-34.8 -150.15 Q-30.9 -152.8 -27.0 -155.4 L-29.45 -159.6 Q-34.4 -167.95 -40.0 -176.0 L-48.1 -170.0 M-227.25 125.95 L-227.25 137.15 Q-214.75 132.0 -203.2 123.75 L-208.95 116.35 Q-217.75 122.05 -227.25 125.95;M198.45 -78.95 L199.45 -70.0 Q214.9 -71.3 230.0 -70.0 L230.0 -80.0 Q214.2 -79.45 198.45 -78.95 M-48.1 -170.0 Q-39.75 -158.65 -32.85 -146.85 L-29.8 -141.55 Q-25.75 -143.55 -21.65 -145.5 L-24.75 -151.35 Q-31.65 -164.05 -40.0 -176.0 L-48.1 -170.0 M-227.25 125.95 L-227.25 137.15 Q-209.55 129.85 -193.8 116.35 L-199.6 109.65 Q-212.55 119.9 -227.25 125.95"/>
    </path>
    <path d="M-227.25 125.95 Q-217.75 122.05 -208.95 116.35 L-203.2 123.75 Q-214.75 132.0 -227.25 137.15 L-227.25 125.95 M-48.1 -170.0 L-40.0 -176.0 Q-34.4 -167.95 -29.45 -159.6 L-27.0 -155.4 Q-30.9 -152.8 -34.8 -150.15 L-37.2 -154.05 Q-42.3 -162.15 -48.1 -170.0 M207.25 -79.6 Q218.5 -80.3 230.0 -80.0 L230.0 -70.0 Q219.05 -70.95 207.9 -70.5 L207.25 -79.6" fill="none" stroke="#000000" stroke-linecap="round" stroke-linejoin="round" stroke-opacity="0.0" stroke-width="1.0">
      <animate attributeName="stroke" dur="2s" repeatCount="indefinite" values="#000000;#000001"/>
      <animate attributeName="stroke-width" dur="2s" repeatCount="indefinite" values="0.0;0.0"/>
      <animate attributeName="fill-opacity" dur="2s" repeatCount="indefinite" values="0.0;0.0"/>
      <animate attributeName="d" dur="2s" repeatCount="indefinite" values="M-227.25 125.95 Q-217.75 122.05 -208.95 116.35 L-203.2 123.75 Q-214.75 132.0 -227.25 137.15 L-227.25 125.95 M-48.1 -170.0 L-40.0 -176.0 Q-34.4 -167.95 -29.45 -159.6 L-27.0 -155.4 Q-30.9 -152.8 -34.8 -150.15 L-37.2 -154.05 Q-42.3 -162.15 -48.1 -170.0 M207.25 -79.6 Q218.5 -80.3 230.0 -80.0 L230.0 -70.0 Q219.05 -70.95 207.9 -70.5 L207.25 -79.6;M-227.25 125.95 Q-212.55 119.9 -199.6 109.65 L-193.8 116.35 Q-209.55 129.85 -227.25 137.15 L-227.25 125.95 M-48.1 -170.0 L-40.0 -176.0 Q-31.65 -164.05 -24.75 -151.35 L-21.65 -145.5 Q-25.75 -143.55 -29.8 -141.55 L-32.85 -146.85 Q-39.75 -158.65 -48.1 -170.0 M198.45 -78.95 Q214.2 -79.45 230.0 -80.0 L230.0 -70.0 Q214.9 -71.3 199.45 -70.0 L198.45 -78.95"/>
    </path>
  </g>
</svg>
