<?xml version="1.0" encoding="UTF-8" standalone="no"?>
<svg xmlns:xlink="http://www.w3.org/1999/xlink" height="313.15px" width="457.25px" xmlns="http://www.w3.org/2000/svg">
  <g transform="matrix(1.0, 0.0, 0.0, 1.0, 227.25, 176.0)">
    <path d="M198.45 -78.95 L199.45 -70.0 Q214.9 -71.3 230.0 -70.0 L230.0 -80.0 Q214.2 -79.45 198.45 -78.95 M-48.1 -170.0 Q-39.75 -158.65 -32.85 -146.85 L-31.25 -144.15 -29.8 -141.55 -27.8 -142.5 Q-24.75 -144.0 -21.95 -146.0 L-22.95 -147.95 -24.1 -150.15 -24.75 -151.35 Q-31.65 -164.05 -41.4 -175.0 L-48.1 -170.0 M-227.25 125.95 L-227.25 137.15 Q-209.55 129.85 -193.8 116.35 L-199.6 109.65 Q-212.55 119.9 -227.25 125.95" fill="#ffffff" fill-rule="evenodd" stroke="none">
      <animate attributeName="fill" dur="2s" repeatCount="indefinite" values="#ffffff;#ffffff"/>
      <animate attributeName="fill-opacity" dur="2s" repeatCount="indefinite" values="1.0;1.0"/>
      <animate attributeName="d" dur="2s" repeatCount="indefinite" values="M198.45 -78.95 L199.45 -70.0 Q214.9 -71.3 230.0 -70.0 L230.0 -80.0 Q214.2 -79.45 198.45 -78.95 M-48.1 -170.0 Q-39.75 -158.65 -32.85 -146.85 L-31.25 -144.15 -29.8 -141.55 -27.8 -142.5 Q-24.75 -144.0 -21.95 -146.0 L-22.95 -147.95 -24.1 -150.15 -24.75 -151.35 Q-31.65 -164.05 -41.4 -175.0 L-48.1 -170.0 M-227.25 125.95 L-227.25 137.15 Q-209.55 129.85 -193.8 116.35 L-199.6 109.65 Q-212.55 119.9 -227.25 125.95;M189.05 -77.9 L190.15 -69.0 Q210.35 -71.7 230.0 -70.0 L230.0 -80.0 Q209.05 -80.5 189.05 -77.9 M-48.1 -170.0 Q-37.9 -156.1 -29.85 -141.6 L-28.1 -138.4 -26.25 -135.0 -25.1 -132.6 Q-21.25 -134.75 -17.4 -136.85 L-18.65 -139.45 -20.15 -142.55 -20.85 -144.05 Q-28.8 -159.7 -40.0 -176.0 L-48.1 -170.0 M-227.25 125.95 L-227.25 137.15 Q-204.1 127.65 -184.25 107.4 L-190.6 101.85 Q-207.35 117.8 -227.25 125.95"/>
    </path>
    <path d="M-227.25 125.95 Q-212.55 119.9 -199.6 109.65 L-193.8 116.35 Q-209.55 129.85 -227.25 137.15 L-227.25 125.95 M-48.1 -170.0 L-41.4 -175.0 Q-31.65 -164.05 -24.75 -151.35 L-24.1 -150.15 -22.95 -147.95 -21.95 -146.0 Q-24.75 -144.0 -27.8 -142.5 L-29.8 -141.55 -31.25 -144.15 -32.85 -146.85 Q-39.75 -158.65 -48.1 -170.0 M198.45 -78.95 Q214.2 -79.45 230.0 -80.0 L230.0 -70.0 Q214.9 -71.3 199.45 -70.0 L198.45 -78.95" fill="none" stroke="#000000" stroke-linecap="round" stroke-linejoin="round" stroke-opacity="0.0" stroke-width="1.0">
      <animate attributeName="stroke" dur="2s" repeatCount="indefinite" values="#000000;#000001"/>
      <animate attributeName="stroke-width" dur="2s" repeatCount="indefinite" values="0.0;0.0"/>
      <animate attributeName="fill-opacity" dur="2s" repeatCount="indefinite" values="0.0;0.0"/>
      <animate attributeName="d" dur="2s" repeatCount="indefinite" values="M-227.25 125.95 Q-212.55 119.9 -199.6 109.65 L-193.8 116.35 Q-209.55 129.85 -227.25 137.15 L-227.25 125.95 M-48.1 -170.0 L-41.4 -175.0 Q-31.65 -164.05 -24.75 -151.35 L-24.1 -150.15 -22.95 -147.95 -21.95 -146.0 Q-24.75 -144.0 -27.8 -142.5 L-29.8 -141.55 -31.25 -144.15 -32.85 -146.85 Q-39.75 -158.65 -48.1 -170.0 M198.45 -78.95 Q214.2 -79.45 230.0 -80.0 L230.0 -70.0 Q214.9 -71.3 199.45 -70.0 L198.45 -78.95;M-227.25 125.95 Q-207.35 117.8 -190.6 101.85 L-184.25 107.4 Q-204.1 127.65 -227.25 137.15 L-227.25 125.95 M-48.1 -170.0 L-40.0 -176.0 Q-28.8 -159.7 -20.85 -144.05 L-20.15 -142.55 -18.65 -139.45 -17.4 -136.85 Q-21.25 -134.75 -25.1 -132.6 L-26.25 -135.0 -28.1 -138.4 -29.85 -141.6 Q-37.9 -156.1 -48.1 -170.0 M189.05 -77.9 Q209.05 -80.5 230.0 -80.0 L230.0 -70.0 Q210.35 -71.7 190.15 -69.0 L189.05 -77.9"/>
    </path>
  </g>
</svg>
