<?xml version="1.0" encoding="UTF-8" standalone="no"?>
<svg xmlns:xlink="http://www.w3.org/1999/xlink" height="313.15px" width="457.25px" xmlns="http://www.w3.org/2000/svg">
  <g transform="matrix(1.0, 0.0, 0.0, 1.0, 227.25, 176.0)">
    <path d="M189.05 -77.9 L190.15 -69.0 Q210.35 -71.7 230.0 -70.0 L230.0 -80.0 Q209.05 -80.5 189.05 -77.9 M-48.1 -170.0 Q-36.75 -154.55 -28.1 -138.4 L-26.45 -135.3 -25.1 -132.6 -24.0 -133.2 -17.4 -136.85 -18.65 -139.45 -20.15 -142.55 Q-28.8 -159.95 -41.3 -175.0 L-48.1 -170.0 M-227.25 125.95 L-227.25 135.25 -227.25 137.15 Q-205.2 128.1 -186.1 109.25 L-184.65 107.8 -184.25 107.4 -188.8 103.45 -190.6 101.85 Q-207.35 117.8 -227.25 125.95" fill="#ffffff" fill-rule="evenodd" stroke="none">
      <animate attributeName="fill" dur="2s" repeatCount="indefinite" values="#ffffff;#ffffff"/>
      <animate attributeName="fill-opacity" dur="2s" repeatCount="indefinite" values="1.0;1.0"/>
      <animate attributeName="d" dur="2s" repeatCount="indefinite" values="M189.05 -77.9 L190.15 -69.0 Q210.35 -71.7 230.0 -70.0 L230.0 -80.0 Q209.05 -80.5 189.05 -77.9 M-48.1 -170.0 Q-36.75 -154.55 -28.1 -138.4 L-26.45 -135.3 -25.1 -132.6 -24.0 -133.2 -17.4 -136.85 -18.65 -139.45 -20.15 -142.55 Q-28.8 -159.95 -41.3 -175.0 L-48.1 -170.0 M-227.25 125.95 L-227.25 135.25 -227.25 137.15 Q-205.2 128.1 -186.1 109.25 L-184.65 107.8 -184.25 107.4 -188.8 103.45 -190.6 101.85 Q-207.35 117.8 -227.25 125.95;M180.85 -76.7 L182.7 -67.85 Q206.75 -72.0 230.0 -70.0 L230.0 -80.0 Q204.75 -80.6 180.85 -76.7 M-48.1 -170.0 Q-34.6 -151.6 -24.8 -132.15 L-23.1 -128.65 -21.6 -125.45 -21.0 -124.05 -13.2 -127.35 -14.7 -130.75 -16.15 -134.1 Q-25.75 -155.2 -40.0 -176.0 L-48.1 -170.0 M-227.25 125.95 L-227.25 137.15 -225.05 136.25 Q-199.2 124.95 -177.45 100.0 L-176.0 98.15 -176.6 97.75 -182.5 93.45 -184.45 95.6 Q-203.6 116.25 -227.25 125.95"/>
    </path>
    <path d="M-227.25 125.95 Q-207.35 117.8 -190.6 101.85 L-188.8 103.45 -184.25 107.4 -184.65 107.8 -186.1 109.25 Q-205.2 128.1 -227.25 137.15 L-227.25 135.25 -227.25 125.95 M-48.1 -170.0 L-41.3 -175.0 Q-28.8 -159.95 -20.15 -142.55 L-18.65 -139.45 -17.4 -136.85 -24.0 -133.2 -25.1 -132.6 -26.45 -135.3 -28.1 -138.4 Q-36.75 -154.55 -48.1 -170.0 M189.05 -77.9 Q209.05 -80.5 230.0 -80.0 L230.0 -70.0 Q210.35 -71.7 190.15 -69.0 L189.05 -77.9" fill="none" stroke="#000000" stroke-linecap="round" stroke-linejoin="round" stroke-opacity="0.0" stroke-width="1.0">
      <animate attributeName="stroke" dur="2s" repeatCount="indefinite" values="#000000;#000001"/>
      <animate attributeName="stroke-width" dur="2s" repeatCount="indefinite" values="0.0;0.0"/>
      <animate attributeName="fill-opacity" dur="2s" repeatCount="indefinite" values="0.0;0.0"/>
      <animate attributeName="d" dur="2s" repeatCount="indefinite" values="M-227.25 125.95 Q-207.35 117.8 -190.6 101.85 L-188.8 103.45 -184.25 107.4 -184.65 107.8 -186.1 109.25 Q-205.2 128.1 -227.25 137.15 L-227.25 135.25 -227.25 125.95 M-48.1 -170.0 L-41.3 -175.0 Q-28.8 -159.95 -20.15 -142.55 L-18.65 -139.45 -17.4 -136.85 -24.0 -133.2 -25.1 -132.6 -26.45 -135.3 -28.1 -138.4 Q-36.75 -154.55 -48.1 -170.0 M189.05 -77.9 Q209.05 -80.5 230.0 -80.0 L230.0 -70.0 Q210.35 -71.7 190.15 -69.0 L189.05 -77.9;M-227.25 125.95 Q-203.6 116.25 -184.45 95.6 L-182.5 93.45 -176.6 97.75 -176.0 98.15 -177.45 100.0 Q-199.2 124.95 -225.05 136.25 L-227.25 137.15 -227.25 125.95 M-48.1 -170.0 L-40.0 -176.0 Q-25.75 -155.2 -16.15 -134.1 L-14.7 -130.75 -13.2 -127.35 -21.0 -124.05 -21.6 -125.45 -23.1 -128.65 -24.8 -132.15 Q-34.6 -151.6 -48.1 -170.0 M180.85 -76.7 Q204.75 -80.6 230.0 -80.0 L230.0 -70.0 Q206.75 -72.0 182.7 -67.85 L180.85 -76.7"/>
    </path>
  </g>
</svg>
