<?xml version="1.0" encoding="UTF-8" standalone="no"?>
<svg xmlns:xlink="http://www.w3.org/1999/xlink" height="313.15px" width="457.25px" xmlns="http://www.w3.org/2000/svg">
  <g transform="matrix(1.0, 0.0, 0.0, 1.0, 227.25, 176.0)">
    <path d="M180.85 -76.7 L182.7 -67.85 Q206.75 -72.0 230.0 -70.0 L230.0 -80.0 Q204.75 -80.6 180.85 -76.7 M-48.1 -170.0 Q-33.9 -150.65 -23.85 -130.05 L-23.45 -129.25 Q-22.2 -126.65 -19.9 -124.55 L-13.2 -127.45 Q-24.05 -153.05 -40.9 -175.3 L-48.1 -170.0 M-227.25 125.95 L-227.25 135.55 -227.25 137.15 Q-204.35 127.75 -184.65 107.8 -181.0 104.1 -177.45 100.0 L-176.4 98.65 -176.0 98.15 -181.0 94.55 -182.5 93.45 -185.45 96.65 Q-204.25 116.5 -227.25 125.95" fill="#ffffff" fill-rule="evenodd" stroke="none">
      <animate attributeName="fill" dur="2s" repeatCount="indefinite" values="#ffffff;#ffffff"/>
      <animate attributeName="fill-opacity" dur="2s" repeatCount="indefinite" values="1.0;1.0"/>
      <animate attributeName="d" dur="2s" repeatCount="indefinite" values="M180.85 -76.7 L182.7 -67.85 Q206.75 -72.0 230.0 -70.0 L230.0 -80.0 Q204.75 -80.6 180.85 -76.7 M-48.1 -170.0 Q-33.9 -150.65 -23.85 -130.05 L-23.45 -129.25 Q-22.2 -126.65 -19.9 -124.55 L-13.2 -127.45 Q-24.05 -153.05 -40.9 -175.3 L-48.1 -170.0 M-227.25 125.95 L-227.25 135.55 -227.25 137.15 Q-204.35 127.75 -184.65 107.8 -181.0 104.1 -177.45 100.0 L-176.4 98.65 -176.0 98.15 -181.0 94.55 -182.5 93.45 -185.45 96.65 Q-204.25 116.5 -227.25 125.95;M172.65 -75.2 L174.6 -66.3 Q202.85 -72.35 230.0 -70.0 L230.0 -80.0 Q200.35 -80.7 172.65 -75.2 M-48.1 -170.0 Q-31.95 -148.05 -21.25 -124.6 L-20.85 -123.7 Q-19.25 -120.1 -17.7 -116.5 L-10.1 -119.75 Q-21.4 -149.0 -40.0 -176.0 L-48.1 -170.0 M-227.25 125.95 L-227.25 137.15 -225.55 136.45 Q-199.4 125.2 -177.45 100.0 -173.7 95.0 -169.85 90.5 L-168.5 88.9 -169.1 88.4 -174.85 84.1 -176.35 85.9 -179.55 90.0 Q-200.55 115.0 -227.25 125.95"/>
    </path>
    <path d="M-227.25 125.95 Q-204.25 116.5 -185.45 96.65 L-182.5 93.45 -181.0 94.55 -176.0 98.15 -176.4 98.65 -177.45 100.0 Q-181.0 104.1 -184.65 107.8 -204.35 127.75 -227.25 137.15 L-227.25 135.55 -227.25 125.95 M-48.1 -170.0 L-40.9 -175.3 Q-24.05 -153.05 -13.2 -127.45 L-19.9 -124.55 Q-22.2 -126.65 -23.45 -129.25 L-23.85 -130.05 Q-33.9 -150.65 -48.1 -170.0 M180.85 -76.7 Q204.75 -80.6 230.0 -80.0 L230.0 -70.0 Q206.75 -72.0 182.7 -67.85 L180.85 -76.7" fill="none" stroke="#000000" stroke-linecap="round" stroke-linejoin="round" stroke-opacity="0.0" stroke-width="1.0">
      <animate attributeName="stroke" dur="2s" repeatCount="indefinite" values="#000000;#000001"/>
      <animate attributeName="stroke-width" dur="2s" repeatCount="indefinite" values="0.0;0.0"/>
      <animate attributeName="fill-opacity" dur="2s" repeatCount="indefinite" values="0.0;0.0"/>
      <animate attributeName="d" dur="2s" repeatCount="indefinite" values="M-227.25 125.95 Q-204.25 116.5 -185.45 96.65 L-182.5 93.45 -181.0 94.55 -176.0 98.15 -176.4 98.65 -177.45 100.0 Q-181.0 104.1 -184.65 107.8 -204.35 127.75 -227.25 137.15 L-227.25 135.55 -227.25 125.95 M-48.1 -170.0 L-40.9 -175.3 Q-24.05 -153.05 -13.2 -127.45 L-19.9 -124.55 Q-22.2 -126.65 -23.45 -129.25 L-23.85 -130.05 Q-33.9 -150.65 -48.1 -170.0 M180.85 -76.7 Q204.75 -80.6 230.0 -80.0 L230.0 -70.0 Q206.75 -72.0 182.7 -67.85 L180.85 -76.7;M-227.25 125.95 Q-200.55 115.0 -179.55 90.0 L-176.35 85.9 -174.85 84.1 -169.1 88.4 -168.5 88.9 -169.85 90.5 Q-173.7 95.0 -177.45 100.0 -199.4 125.2 -225.55 136.45 L-227.25 137.15 -227.25 125.95 M-48.1 -170.0 L-40.0 -176.0 Q-21.4 -149.0 -10.1 -119.75 L-17.7 -116.5 Q-19.25 -120.1 -20.85 -123.7 L-21.25 -124.6 Q-31.95 -148.05 -48.1 -170.0 M172.65 -75.2 Q200.35 -80.7 230.0 -80.0 L230.0 -70.0 Q202.85 -72.35 174.6 -66.3 L172.65 -75.2"/>
    </path>
  </g>
</svg>
