<?xml version="1.0" encoding="UTF-8" standalone="no"?>
<svg xmlns:xlink="http://www.w3.org/1999/xlink" height="313.15px" width="457.25px" xmlns="http://www.w3.org/2000/svg">
  <g transform="matrix(1.0, 0.0, 0.0, 1.0, 227.25, 176.0)">
    <path d="M172.65 -75.2 L174.6 -66.3 Q202.85 -72.35 230.0 -70.0 L230.0 -80.0 Q200.35 -80.7 172.65 -75.2 M-48.1 -170.0 Q-31.95 -148.05 -21.25 -124.6 L-20.85 -123.7 Q-19.2 -120.1 -16.7 -116.9 -13.4 -118.3 -10.1 -119.85 -21.7 -149.65 -40.8 -175.4 L-48.1 -170.0 M-227.25 125.95 L-227.25 137.15 Q-200.1 126.0 -177.45 100.0 -172.95 94.45 -168.5 88.9 L-174.85 84.1 Q-177.2 87.05 -179.55 90.0 -200.55 115.0 -227.25 125.95" fill="#ffffff" fill-rule="evenodd" stroke="none">
      <animate attributeName="fill" dur="2s" repeatCount="indefinite" values="#ffffff;#ffffff"/>
      <animate attributeName="fill-opacity" dur="2s" repeatCount="indefinite" values="1.0;1.0"/>
      <animate attributeName="d" dur="2s" repeatCount="indefinite" values="M172.65 -75.2 L174.6 -66.3 Q202.85 -72.35 230.0 -70.0 L230.0 -80.0 Q200.35 -80.7 172.65 -75.2 M-48.1 -170.0 Q-31.95 -148.05 -21.25 -124.6 L-20.85 -123.7 Q-19.2 -120.1 -16.7 -116.9 -13.4 -118.3 -10.1 -119.85 -21.7 -149.65 -40.8 -175.4 L-48.1 -170.0 M-227.25 125.95 L-227.25 137.15 Q-200.1 126.0 -177.45 100.0 -172.95 94.45 -168.5 88.9 L-174.85 84.1 Q-177.2 87.05 -179.55 90.0 -200.55 115.0 -227.25 125.95;M163.35 -73.2 L166.25 -64.35 Q198.85 -72.7 230.0 -70.0 L230.0 -80.0 Q195.35 -80.85 163.35 -73.2 M-48.1 -170.0 Q-30.2 -145.6 -18.95 -119.4 L-18.55 -118.4 Q-16.7 -113.85 -14.9 -109.35 -11.1 -110.75 -7.35 -112.15 -19.1 -145.8 -40.0 -176.0 L-48.1 -170.0 M-227.25 125.95 L-227.25 137.15 Q-200.1 126.0 -177.45 100.0 -169.15 89.0 -160.4 80.0 L-166.6 74.65 Q-173.3 81.75 -179.55 90.0 -200.55 115.0 -227.25 125.95"/>
    </path>
    <path d="M-227.25 125.95 Q-200.55 115.0 -179.55 90.0 -177.2 87.05 -174.85 84.1 L-168.5 88.9 Q-172.95 94.45 -177.45 100.0 -200.1 126.0 -227.25 137.15 L-227.25 125.95 M-48.1 -170.0 L-40.8 -175.4 Q-21.7 -149.65 -10.1 -119.85 -13.4 -118.3 -16.7 -116.9 -19.2 -120.1 -20.85 -123.7 L-21.25 -124.6 Q-31.95 -148.05 -48.1 -170.0 M172.65 -75.2 Q200.35 -80.7 230.0 -80.0 L230.0 -70.0 Q202.85 -72.35 174.6 -66.3 L172.65 -75.2" fill="none" stroke="#000000" stroke-linecap="round" stroke-linejoin="round" stroke-opacity="0.0" stroke-width="1.0">
      <animate attributeName="stroke" dur="2s" repeatCount="indefinite" values="#000000;#000001"/>
      <animate attributeName="stroke-width" dur="2s" repeatCount="indefinite" values="0.0;0.0"/>
      <animate attributeName="fill-opacity" dur="2s" repeatCount="indefinite" values="0.0;0.0"/>
      <animate attributeName="d" dur="2s" repeatCount="indefinite" values="M-227.25 125.95 Q-200.55 115.0 -179.55 90.0 -177.2 87.05 -174.85 84.1 L-168.5 88.9 Q-172.95 94.45 -177.45 100.0 -200.1 126.0 -227.25 137.15 L-227.25 125.95 M-48.1 -170.0 L-40.8 -175.4 Q-21.7 -149.65 -10.1 -119.85 -13.4 -118.3 -16.7 -116.9 -19.2 -120.1 -20.85 -123.7 L-21.25 -124.6 Q-31.95 -148.05 -48.1 -170.0 M172.65 -75.2 Q200.35 -80.7 230.0 -80.0 L230.0 -70.0 Q202.85 -72.35 174.6 -66.3 L172.65 -75.2;M-227.25 125.95 Q-200.55 115.0 -179.55 90.0 -173.3 81.75 -166.6 74.65 L-160.4 80.0 Q-169.15 89.0 -177.45 100.0 -200.1 126.0 -227.25 137.15 L-227.25 125.95 M-48.1 -170.0 L-40.0 -176.0 Q-19.1 -145.8 -7.35 -112.15 -11.1 -110.75 -14.9 -109.35 -16.7 -113.85 -18.55 -118.4 L-18.95 -119.4 Q-30.2 -145.6 -48.1 -170.0 M163.35 -73.2 Q195.35 -80.85 230.0 -80.0 L230.0 -70.0 Q198.85 -72.7 166.25 -64.35 L163.35 -73.2"/>
    </path>
  </g>
</svg>
