<?xml version="1.0" encoding="UTF-8" standalone="no"?>
<svg xmlns:xlink="http://www.w3.org/1999/xlink" height="313.15px" width="457.25px" xmlns="http://www.w3.org/2000/svg">
  <g transform="matrix(1.0, 0.0, 0.0, 1.0, 227.25, 176.0)">
    <path d="M163.35 -73.2 L166.25 -64.35 Q198.85 -72.7 230.0 -70.0 L230.0 -80.0 Q195.35 -80.85 163.35 -73.2 M-48.1 -170.0 Q-26.8 -140.95 -14.9 -109.35 L-7.35 -112.15 Q-19.3 -146.3 -40.0 -176.0 L-48.1 -170.0 M-227.25 125.95 L-227.25 137.15 Q-200.1 126.0 -177.45 100.0 -169.15 89.0 -160.4 80.0 L-166.6 74.65 Q-173.3 81.75 -179.55 90.0 -200.55 115.0 -227.25 125.95" fill="#ffffff" fill-rule="evenodd" stroke="none">
      <animate attributeName="fill" dur="2s" repeatCount="indefinite" values="#ffffff;#ffffff"/>
      <animate attributeName="fill-opacity" dur="2s" repeatCount="indefinite" values="1.0;1.0"/>
      <animate attributeName="d" dur="2s" repeatCount="indefinite" values="M163.35 -73.2 L166.25 -64.35 Q198.85 -72.7 230.0 -70.0 L230.0 -80.0 Q195.35 -80.85 163.35 -73.2 M-48.1 -170.0 Q-26.8 -140.95 -14.9 -109.35 L-7.35 -112.15 Q-19.3 -146.3 -40.0 -176.0 L-48.1 -170.0 M-227.25 125.95 L-227.25 137.15 Q-200.1 126.0 -177.45 100.0 -169.15 89.0 -160.4 80.0 L-166.6 74.65 Q-173.3 81.75 -179.55 90.0 -200.55 115.0 -227.25 125.95;M154.85 -71.0 L157.85 -62.0 Q194.85 -73.0 230.0 -70.0 L230.0 -80.0 Q190.75 -80.95 154.85 -71.0 M-48.1 -170.0 Q-24.25 -137.5 -12.2 -101.75 L-4.6 -104.0 Q-16.85 -142.75 -40.0 -176.0 L-48.1 -170.0 M-227.25 125.95 L-227.25 137.15 Q-200.1 126.0 -177.45 100.0 -165.35 83.95 -152.2 72.1 L-158.05 66.15 Q-169.35 76.55 -179.55 90.0 -200.55 115.0 -227.25 125.95"/>
    </path>
    <path d="M-227.25 125.95 Q-200.55 115.0 -179.55 90.0 -173.3 81.75 -166.6 74.65 L-160.4 80.0 Q-169.15 89.0 -177.45 100.0 -200.1 126.0 -227.25 137.15 L-227.25 125.95 M-48.1 -170.0 L-40.0 -176.0 Q-19.3 -146.3 -7.35 -112.15 L-14.9 -109.35 Q-26.8 -140.95 -48.1 -170.0 M163.35 -73.2 Q195.35 -80.85 230.0 -80.0 L230.0 -70.0 Q198.85 -72.7 166.25 -64.35 L163.35 -73.2" fill="none" stroke="#000000" stroke-linecap="round" stroke-linejoin="round" stroke-opacity="0.0" stroke-width="1.0">
      <animate attributeName="stroke" dur="2s" repeatCount="indefinite" values="#000000;#000001"/>
      <animate attributeName="stroke-width" dur="2s" repeatCount="indefinite" values="0.0;0.0"/>
      <animate attributeName="fill-opacity" dur="2s" repeatCount="indefinite" values="0.0;0.0"/>
      <animate attributeName="d" dur="2s" repeatCount="indefinite" values="M-227.25 125.95 Q-200.55 115.0 -179.55 90.0 -173.3 81.75 -166.6 74.65 L-160.4 80.0 Q-169.15 89.0 -177.45 100.0 -200.1 126.0 -227.25 137.15 L-227.25 125.95 M-48.1 -170.0 L-40.0 -176.0 Q-19.3 -146.3 -7.35 -112.15 L-14.9 -109.35 Q-26.8 -140.95 -48.1 -170.0 M163.35 -73.2 Q195.35 -80.85 230.0 -80.0 L230.0 -70.0 Q198.85 -72.7 166.25 -64.35 L163.35 -73.2;M-227.25 125.95 Q-200.55 115.0 -179.55 90.0 -169.35 76.55 -158.05 66.15 L-152.2 72.1 Q-165.35 83.95 -177.45 100.0 -200.1 126.0 -227.25 137.15 L-227.25 125.95 M-48.1 -170.0 L-40.0 -176.0 Q-16.85 -142.75 -4.6 -104.0 L-12.2 -101.75 Q-24.25 -137.5 -48.1 -170.0 M154.85 -71.0 Q190.75 -80.95 230.0 -80.0 L230.0 -70.0 Q194.85 -73.0 157.85 -62.0 L154.85 -71.0"/>
    </path>
  </g>
</svg>
