<?xml version="1.0" encoding="UTF-8" standalone="no"?>
<svg xmlns:xlink="http://www.w3.org/1999/xlink" height="313.15px" width="457.25px" xmlns="http://www.w3.org/2000/svg">
  <g transform="matrix(1.0, 0.0, 0.0, 1.0, 227.25, 176.0)">
    <path d="M154.85 -71.0 L157.85 -62.0 Q194.85 -73.0 230.0 -70.0 L230.0 -80.0 Q190.75 -80.95 154.85 -71.0 M-48.1 -170.0 Q-24.25 -137.5 -12.2 -101.75 L-4.6 -104.0 Q-16.85 -142.75 -40.0 -176.0 L-48.1 -170.0 M-227.25 125.95 L-227.25 137.15 Q-200.1 126.0 -177.45 100.0 -165.35 83.95 -152.2 72.1 L-158.05 66.15 Q-169.35 76.55 -179.55 90.0 -200.55 115.0 -227.25 125.95" fill="#ffffff" fill-rule="evenodd" stroke="none">
      <animate attributeName="fill" dur="2s" repeatCount="indefinite" values="#ffffff;#ffffff"/>
      <animate attributeName="fill-opacity" dur="2s" repeatCount="indefinite" values="1.0;1.0"/>
      <animate attributeName="d" dur="2s" repeatCount="indefinite" values="M154.85 -71.0 L157.85 -62.0 Q194.85 -73.0 230.0 -70.0 L230.0 -80.0 Q190.75 -80.95 154.85 -71.0 M-48.1 -170.0 Q-24.25 -137.5 -12.2 -101.75 L-4.6 -104.0 Q-16.85 -142.75 -40.0 -176.0 L-48.1 -170.0 M-227.25 125.95 L-227.25 137.15 Q-200.1 126.0 -177.45 100.0 -165.35 83.95 -152.2 72.1 L-158.05 66.15 Q-169.35 76.55 -179.55 90.0 -200.55 115.0 -227.25 125.95;M147.6 -68.9 L150.15 -59.55 Q191.2 -73.35 230.0 -70.0 L230.0 -80.0 Q186.75 -81.05 147.6 -68.9 M-48.1 -170.0 Q-21.35 -133.55 -9.45 -93.0 L-1.85 -94.6 Q-14.1 -138.75 -40.0 -176.0 L-48.1 -170.0 M-227.25 125.95 L-227.25 137.15 Q-200.1 126.0 -177.45 100.0 -161.3 78.6 -143.35 64.65 L-148.65 58.25 Q-165.2 71.1 -179.55 90.0 -200.55 115.0 -227.25 125.95"/>
    </path>
    <path d="M-227.25 125.95 Q-200.55 115.0 -179.55 90.0 -169.35 76.55 -158.05 66.15 L-152.2 72.1 Q-165.35 83.95 -177.45 100.0 -200.1 126.0 -227.25 137.15 L-227.25 125.95 M-48.1 -170.0 L-40.0 -176.0 Q-16.85 -142.75 -4.6 -104.0 L-12.2 -101.75 Q-24.25 -137.5 -48.1 -170.0 M154.85 -71.0 Q190.75 -80.95 230.0 -80.0 L230.0 -70.0 Q194.85 -73.0 157.85 -62.0 L154.85 -71.0" fill="none" stroke="#000000" stroke-linecap="round" stroke-linejoin="round" stroke-opacity="0.0" stroke-width="1.0">
      <animate attributeName="stroke" dur="2s" repeatCount="indefinite" values="#000000;#000001"/>
      <animate attributeName="stroke-width" dur="2s" repeatCount="indefinite" values="0.0;0.0"/>
      <animate attributeName="fill-opacity" dur="2s" repeatCount="indefinite" values="0.0;0.0"/>
      <animate attributeName="d" dur="2s" repeatCount="indefinite" values="M-227.25 125.95 Q-200.55 115.0 -179.55 90.0 -169.35 76.55 -158.05 66.15 L-152.2 72.1 Q-165.35 83.95 -177.45 100.0 -200.1 126.0 -227.25 137.15 L-227.25 125.95 M-48.1 -170.0 L-40.0 -176.0 Q-16.85 -142.75 -4.6 -104.0 L-12.2 -101.75 Q-24.25 -137.5 -48.1 -170.0 M154.85 -71.0 Q190.75 -80.95 230.0 -80.0 L230.0 -70.0 Q194.85 -73.0 157.85 -62.0 L154.85 -71.0;M-227.25 125.95 Q-200.55 115.0 -179.55 90.0 -165.2 71.1 -148.65 58.25 L-143.35 64.65 Q-161.3 78.6 -177.45 100.0 -200.1 126.0 -227.25 137.15 L-227.25 125.95 M-48.1 -170.0 L-40.0 -176.0 Q-14.1 -138.75 -1.85 -94.6 L-9.45 -93.0 Q-21.35 -133.55 -48.1 -170.0 M147.6 -68.9 Q186.75 -81.05 230.0 -80.0 L230.0 -70.0 Q191.2 -73.35 150.15 -59.55 L147.6 -68.9"/>
    </path>
  </g>
</svg>
