<?xml version="1.0" encoding="UTF-8" standalone="no"?>
<svg xmlns:xlink="http://www.w3.org/1999/xlink" height="313.15px" width="457.25px" xmlns="http://www.w3.org/2000/svg">
  <g transform="matrix(1.0, 0.0, 0.0, 1.0, 227.25, 176.0)">
    <path d="M147.6 -68.9 L150.15 -59.55 Q191.2 -73.35 230.0 -70.0 L230.0 -80.0 Q186.75 -81.05 147.6 -68.9 M-48.1 -170.0 Q-21.35 -133.55 -9.45 -93.0 L-1.85 -94.6 Q-14.1 -138.75 -40.0 -176.0 L-48.1 -170.0 M-227.25 125.95 L-227.25 137.15 Q-200.1 126.0 -177.45 100.0 -161.3 78.6 -143.35 64.65 L-148.65 58.25 Q-165.2 71.1 -179.55 90.0 -200.55 115.0 -227.25 125.95" fill="#ffffff" fill-rule="evenodd" stroke="none">
      <animate attributeName="fill" dur="2s" repeatCount="indefinite" values="#ffffff;#ffffff"/>
      <animate attributeName="fill-opacity" dur="2s" repeatCount="indefinite" values="1.0;1.0"/>
      <animate attributeName="d" dur="2s" repeatCount="indefinite" values="M147.6 -68.9 L150.15 -59.55 Q191.2 -73.35 230.0 -70.0 L230.0 -80.0 Q186.75 -81.05 147.6 -68.9 M-48.1 -170.0 Q-21.35 -133.55 -9.45 -93.0 L-1.85 -94.6 Q-14.1 -138.75 -40.0 -176.0 L-48.1 -170.0 M-227.25 125.95 L-227.25 137.15 Q-200.1 126.0 -177.45 100.0 -161.3 78.6 -143.35 64.65 L-148.65 58.25 Q-165.2 71.1 -179.55 90.0 -200.55 115.0 -227.25 125.95;M138.95 -66.05 L142.75 -56.95 Q187.7 -73.65 230.0 -70.0 L230.0 -80.0 Q181.95 -81.15 138.95 -66.05 M-48.1 -170.0 Q-18.15 -129.2 -6.8 -83.3 L0.6 -85.3 Q-11.35 -134.85 -40.0 -176.0 L-48.1 -170.0 M-227.25 125.95 L-227.25 137.15 Q-200.1 126.0 -177.45 100.0 -157.25 73.2 -134.15 58.15 L-138.15 50.8 Q-160.75 65.2 -179.55 90.0 -200.55 115.0 -227.25 125.95"/>
    </path>
    <path d="M-227.25 125.95 Q-200.55 115.0 -179.55 90.0 -165.2 71.1 -148.65 58.25 L-143.35 64.65 Q-161.3 78.6 -177.45 100.0 -200.1 126.0 -227.25 137.15 L-227.25 125.95 M-48.1 -170.0 L-40.0 -176.0 Q-14.1 -138.75 -1.85 -94.6 L-9.45 -93.0 Q-21.35 -133.55 -48.1 -170.0 M147.6 -68.9 Q186.75 -81.05 230.0 -80.0 L230.0 -70.0 Q191.2 -73.35 150.15 -59.55 L147.6 -68.9" fill="none" stroke="#000000" stroke-linecap="round" stroke-linejoin="round" stroke-opacity="0.0" stroke-width="1.0">
      <animate attributeName="stroke" dur="2s" repeatCount="indefinite" values="#000000;#000001"/>
      <animate attributeName="stroke-width" dur="2s" repeatCount="indefinite" values="0.0;0.0"/>
      <animate attributeName="fill-opacity" dur="2s" repeatCount="indefinite" values="0.0;0.0"/>
      <animate attributeName="d" dur="2s" repeatCount="indefinite" values="M-227.25 125.95 Q-200.55 115.0 -179.55 90.0 -165.2 71.1 -148.65 58.25 L-143.35 64.65 Q-161.3 78.6 -177.45 100.0 -200.1 126.0 -227.25 137.15 L-227.25 125.95 M-48.1 -170.0 L-40.0 -176.0 Q-14.1 -138.75 -1.85 -94.6 L-9.45 -93.0 Q-21.35 -133.55 -48.1 -170.0 M147.6 -68.9 Q186.75 -81.05 230.0 -80.0 L230.0 -70.0 Q191.2 -73.35 150.15 -59.55 L147.6 -68.9;M-227.25 125.95 Q-200.55 115.0 -179.55 90.0 -160.75 65.2 -138.15 50.8 L-134.15 58.15 Q-157.25 73.2 -177.45 100.0 -200.1 126.0 -227.25 137.15 L-227.25 125.95 M-48.1 -170.0 L-40.0 -176.0 Q-11.35 -134.85 0.6 -85.3 L-6.8 -83.3 Q-18.15 -129.2 -48.1 -170.0 M138.95 -66.05 Q181.95 -81.15 230.0 -80.0 L230.0 -70.0 Q187.7 -73.65 142.75 -56.95 L138.95 -66.05"/>
    </path>
  </g>
</svg>
