<?xml version="1.0" encoding="UTF-8" standalone="no"?>
<svg xmlns:xlink="http://www.w3.org/1999/xlink" height="313.15px" width="457.25px" xmlns="http://www.w3.org/2000/svg">
  <g transform="matrix(1.0, 0.0, 0.0, 1.0, 227.25, 176.0)">
    <path d="M138.95 -66.05 L142.75 -56.95 Q187.7 -73.65 230.0 -70.0 L230.0 -80.0 Q181.95 -81.15 138.95 -66.05 M-48.1 -170.0 Q-18.15 -129.2 -6.8 -83.3 L0.6 -85.3 Q-11.35 -134.85 -40.0 -176.0 L-48.1 -170.0 M-227.25 125.95 L-227.25 137.15 Q-200.1 126.0 -177.45 100.0 -157.25 73.2 -134.15 58.15 L-138.15 50.8 Q-160.75 65.2 -179.55 90.0 -200.55 115.0 -227.25 125.95" fill="#ffffff" fill-rule="evenodd" stroke="none">
      <animate attributeName="fill" dur="2s" repeatCount="indefinite" values="#ffffff;#ffffff"/>
      <animate attributeName="fill-opacity" dur="2s" repeatCount="indefinite" values="1.0;1.0"/>
      <animate attributeName="d" dur="2s" repeatCount="indefinite" values="M138.95 -66.05 L142.75 -56.95 Q187.7 -73.65 230.0 -70.0 L230.0 -80.0 Q181.95 -81.15 138.95 -66.05 M-48.1 -170.0 Q-18.15 -129.2 -6.8 -83.3 L0.6 -85.3 Q-11.35 -134.85 -40.0 -176.0 L-48.1 -170.0 M-227.25 125.95 L-227.25 137.15 Q-200.1 126.0 -177.45 100.0 -157.25 73.2 -134.15 58.15 L-138.15 50.8 Q-160.75 65.2 -179.55 90.0 -200.55 115.0 -227.25 125.95;M130.95 -63.05 L134.25 -53.65 Q183.7 -74.0 230.0 -70.0 L230.0 -80.0 Q177.45 -81.25 130.95 -63.05 M-48.1 -170.0 Q-15.65 -125.85 -5.05 -75.65 L2.4 -77.15 Q-9.0 -131.5 -40.0 -176.0 L-48.1 -170.0 M-227.25 125.95 L-227.25 137.15 Q-200.1 126.0 -177.45 100.0 -152.9 67.4 -124.05 52.15 L-128.05 45.05 Q-156.65 59.75 -179.55 90.0 -200.55 115.0 -227.25 125.95"/>
    </path>
    <path d="M-227.25 125.95 Q-200.55 115.0 -179.55 90.0 -160.75 65.2 -138.15 50.8 L-134.15 58.15 Q-157.25 73.2 -177.45 100.0 -200.1 126.0 -227.25 137.15 L-227.25 125.95 M-48.1 -170.0 L-40.0 -176.0 Q-11.35 -134.85 0.6 -85.3 L-6.8 -83.3 Q-18.15 -129.2 -48.1 -170.0 M138.95 -66.05 Q181.95 -81.15 230.0 -80.0 L230.0 -70.0 Q187.7 -73.65 142.75 -56.95 L138.95 -66.05" fill="none" stroke="#000000" stroke-linecap="round" stroke-linejoin="round" stroke-opacity="0.0" stroke-width="1.0">
      <animate attributeName="stroke" dur="2s" repeatCount="indefinite" values="#000000;#000001"/>
      <animate attributeName="stroke-width" dur="2s" repeatCount="indefinite" values="0.0;0.0"/>
      <animate attributeName="fill-opacity" dur="2s" repeatCount="indefinite" values="0.0;0.0"/>
      <animate attributeName="d" dur="2s" repeatCount="indefinite" values="M-227.25 125.95 Q-200.55 115.0 -179.55 90.0 -160.75 65.2 -138.15 50.8 L-134.15 58.15 Q-157.25 73.2 -177.45 100.0 -200.1 126.0 -227.25 137.15 L-227.25 125.95 M-48.1 -170.0 L-40.0 -176.0 Q-11.35 -134.85 0.6 -85.3 L-6.8 -83.3 Q-18.15 -129.2 -48.1 -170.0 M138.95 -66.05 Q181.95 -81.15 230.0 -80.0 L230.0 -70.0 Q187.7 -73.65 142.75 -56.95 L138.95 -66.05;M-227.25 125.95 Q-200.55 115.0 -179.55 90.0 -156.65 59.75 -128.05 45.05 L-124.05 52.15 Q-152.9 67.4 -177.45 100.0 -200.1 126.0 -227.25 137.15 L-227.25 125.95 M-48.1 -170.0 L-40.0 -176.0 Q-9.0 -131.5 2.4 -77.15 L-5.05 -75.65 Q-15.65 -125.85 -48.1 -170.0 M130.95 -63.05 Q177.45 -81.25 230.0 -80.0 L230.0 -70.0 Q183.7 -74.0 134.25 -53.65 L130.95 -63.05"/>
    </path>
  </g>
</svg>
