<?xml version="1.0" encoding="UTF-8" standalone="no"?>
<svg xmlns:xlink="http://www.w3.org/1999/xlink" height="313.15px" width="443.1px" xmlns="http://www.w3.org/2000/svg">
  <g transform="matrix(1.0, 0.0, 0.0, 1.0, 227.25, 176.0)">
    <path d="M114.8 -56.05 L118.85 -46.75 Q168.95 -70.95 215.85 -70.65 L215.55 -79.95 Q161.9 -78.5 114.8 -56.05 M-48.1 -170.0 Q-9.95 -118.1 -2.05 -57.9 L5.7 -58.8 Q-3.85 -124.1 -40.0 -176.0 L-48.1 -170.0 M-227.25 125.95 L-227.25 137.15 Q-200.1 126.0 -177.45 100.0 -144.05 55.65 -102.7 43.45 L-105.1 35.95 Q-147.75 48.05 -179.55 90.0 -200.55 115.0 -227.25 125.95" fill="#ffffff" fill-rule="evenodd" stroke="none">
      <animate attributeName="fill" dur="2s" repeatCount="indefinite" values="#ffffff;#ffffff"/>
      <animate attributeName="fill-opacity" dur="2s" repeatCount="indefinite" values="1.0;1.0"/>
      <animate attributeName="d" dur="2s" repeatCount="indefinite" values="M114.8 -56.05 L118.85 -46.75 Q168.95 -70.95 215.85 -70.65 L215.55 -79.95 Q161.9 -78.5 114.8 -56.05 M-48.1 -170.0 Q-9.95 -118.1 -2.05 -57.9 L5.7 -58.8 Q-3.85 -124.1 -40.0 -176.0 L-48.1 -170.0 M-227.25 125.95 L-227.25 137.15 Q-200.1 126.0 -177.45 100.0 -144.05 55.65 -102.7 43.45 L-105.1 35.95 Q-147.75 48.05 -179.55 90.0 -200.55 115.0 -227.25 125.95;M106.95 -52.2 L111.65 -43.15 Q161.0 -68.6 207.25 -70.5 L206.9 -79.6 Q153.65 -76.4 106.95 -52.2 M-48.1 -170.0 Q-7.3 -114.45 -1.05 -49.4 L6.8 -50.3 Q-1.55 -120.75 -40.0 -176.0 L-48.1 -170.0 M-227.25 125.95 L-227.25 137.15 Q-200.1 126.0 -177.45 100.0 -139.8 49.95 -92.0 40.85 L-93.5 33.25 Q-143.5 42.45 -179.55 90.0 -200.55 115.0 -227.25 125.95"/>
    </path>
    <path d="M-227.25 125.95 Q-200.55 115.0 -179.55 90.0 -147.75 48.05 -105.1 35.95 L-102.7 43.45 Q-144.05 55.65 -177.45 100.0 -200.1 126.0 -227.25 137.15 L-227.25 125.95 M-48.1 -170.0 L-40.0 -176.0 Q-3.85 -124.1 5.7 -58.8 L-2.05 -57.9 Q-9.95 -118.1 -48.1 -170.0 M114.8 -56.05 Q161.9 -78.5 215.55 -79.95 L215.85 -70.65 Q168.95 -70.95 118.85 -46.75 L114.8 -56.05" fill="none" stroke="#000000" stroke-linecap="round" stroke-linejoin="round" stroke-opacity="0.0" stroke-width="1.0">
      <animate attributeName="stroke" dur="2s" repeatCount="indefinite" values="#000000;#000001"/>
      <animate attributeName="stroke-width" dur="2s" repeatCount="indefinite" values="0.0;0.0"/>
      <animate attributeName="fill-opacity" dur="2s" repeatCount="indefinite" values="0.0;0.0"/>
      <animate attributeName="d" dur="2s" repeatCount="indefinite" values="M-227.25 125.95 Q-200.55 115.0 -179.55 90.0 -147.75 48.05 -105.1 35.95 L-102.7 43.45 Q-144.05 55.65 -177.45 100.0 -200.1 126.0 -227.25 137.15 L-227.25 125.95 M-48.1 -170.0 L-40.0 -176.0 Q-3.85 -124.1 5.7 -58.8 L-2.05 -57.9 Q-9.95 -118.1 -48.1 -170.0 M114.8 -56.05 Q161.9 -78.5 215.55 -79.95 L215.85 -70.65 Q168.95 -70.95 118.85 -46.75 L114.8 -56.05;M-227.25 125.95 Q-200.55 115.0 -179.55 90.0 -143.5 42.45 -93.5 33.25 L-92.0 40.85 Q-139.8 49.95 -177.45 100.0 -200.1 126.0 -227.25 137.15 L-227.25 125.95 M-48.1 -170.0 L-40.0 -176.0 Q-1.55 -120.75 6.8 -50.3 L-1.05 -49.4 Q-7.3 -114.45 -48.1 -170.0 M106.95 -52.2 Q153.65 -76.4 206.9 -79.6 L207.25 -70.5 Q161.0 -68.6 111.65 -43.15 L106.95 -52.2"/>
    </path>
  </g>
</svg>
