<?xml version="1.0" encoding="UTF-8" standalone="no"?>
<svg xmlns:xlink="http://www.w3.org/1999/xlink" height="313.15px" width="434.5px" xmlns="http://www.w3.org/2000/svg">
  <g transform="matrix(1.0, 0.0, 0.0, 1.0, 227.25, 176.0)">
    <path d="M106.95 -52.2 L111.65 -43.15 Q161.0 -68.6 207.25 -70.5 L206.9 -79.6 Q153.65 -76.4 106.95 -52.2 M-48.1 -170.0 Q-7.3 -114.45 -1.05 -49.4 L6.8 -50.3 Q-1.55 -120.75 -40.0 -176.0 L-48.1 -170.0 M-227.25 125.95 L-227.25 137.15 Q-200.1 126.0 -177.45 100.0 -139.8 49.95 -92.0 40.85 L-93.5 33.25 Q-143.5 42.45 -179.55 90.0 -200.55 115.0 -227.25 125.95" fill="#ffffff" fill-rule="evenodd" stroke="none">
      <animate attributeName="fill" dur="2s" repeatCount="indefinite" values="#ffffff;#ffffff"/>
      <animate attributeName="fill-opacity" dur="2s" repeatCount="indefinite" values="1.0;1.0"/>
      <animate attributeName="d" dur="2s" repeatCount="indefinite" values="M106.95 -52.2 L111.65 -43.15 Q161.0 -68.6 207.25 -70.5 L206.9 -79.6 Q153.65 -76.4 106.95 -52.2 M-48.1 -170.0 Q-7.3 -114.45 -1.05 -49.4 L6.8 -50.3 Q-1.55 -120.75 -40.0 -176.0 L-48.1 -170.0 M-227.25 125.95 L-227.25 137.15 Q-200.1 126.0 -177.45 100.0 -139.8 49.95 -92.0 40.85 L-93.5 33.25 Q-143.5 42.45 -179.55 90.0 -200.55 115.0 -227.25 125.95;M99.45 -48.1 L104.5 -39.35 Q153.05 -65.95 198.65 -69.95 L197.6 -78.85 Q145.3 -73.85 99.45 -48.1 M-48.1 -170.0 Q-4.65 -110.85 -0.4 -40.85 L7.8 -40.8 Q1.05 -117.05 -40.0 -176.0 L-48.1 -170.0 M-227.25 125.95 L-227.25 137.15 Q-200.1 126.0 -177.45 100.0 -135.15 43.8 -80.1 39.2 L-80.55 31.55 Q-138.9 36.35 -179.55 90.0 -200.55 115.0 -227.25 125.95"/>
    </path>
    <path d="M-227.25 125.95 Q-200.55 115.0 -179.55 90.0 -143.5 42.45 -93.5 33.25 L-92.0 40.85 Q-139.8 49.95 -177.45 100.0 -200.1 126.0 -227.25 137.15 L-227.25 125.95 M-48.1 -170.0 L-40.0 -176.0 Q-1.55 -120.75 6.8 -50.3 L-1.05 -49.4 Q-7.3 -114.45 -48.1 -170.0 M106.95 -52.2 Q153.65 -76.4 206.9 -79.6 L207.25 -70.5 Q161.0 -68.6 111.65 -43.15 L106.95 -52.2" fill="none" stroke="#000000" stroke-linecap="round" stroke-linejoin="round" stroke-opacity="0.0" stroke-width="1.0">
      <animate attributeName="stroke" dur="2s" repeatCount="indefinite" values="#000000;#000001"/>
      <animate attributeName="stroke-width" dur="2s" repeatCount="indefinite" values="0.0;0.0"/>
      <animate attributeName="fill-opacity" dur="2s" repeatCount="indefinite" values="0.0;0.0"/>
      <animate attributeName="d" dur="2s" repeatCount="indefinite" values="M-227.25 125.95 Q-200.55 115.0 -179.55 90.0 -143.5 42.45 -93.5 33.25 L-92.0 40.85 Q-139.8 49.95 -177.45 100.0 -200.1 126.0 -227.25 137.15 L-227.25 125.95 M-48.1 -170.0 L-40.0 -176.0 Q-1.55 -120.75 6.8 -50.3 L-1.05 -49.4 Q-7.3 -114.45 -48.1 -170.0 M106.95 -52.2 Q153.65 -76.4 206.9 -79.6 L207.25 -70.5 Q161.0 -68.6 111.65 -43.15 L106.95 -52.2;M-227.25 125.95 Q-200.55 115.0 -179.55 90.0 -138.9 36.35 -80.55 31.55 L-80.1 39.2 Q-135.15 43.8 -177.45 100.0 -200.1 126.0 -227.25 137.15 L-227.25 125.95 M-48.1 -170.0 L-40.0 -176.0 Q1.05 -117.05 7.8 -40.8 L-0.4 -40.85 Q-4.65 -110.85 -48.1 -170.0 M99.45 -48.1 Q145.3 -73.85 197.6 -78.85 L198.65 -69.95 Q153.05 -65.95 104.5 -39.35 L99.45 -48.1"/>
    </path>
  </g>
</svg>
