<?xml version="1.0" encoding="UTF-8" standalone="no"?>
<svg xmlns:xlink="http://www.w3.org/1999/xlink" height="313.15px" width="425.9px" xmlns="http://www.w3.org/2000/svg">
  <g transform="matrix(1.0, 0.0, 0.0, 1.0, 227.25, 176.0)">
    <path d="M99.45 -48.1 L104.5 -39.35 Q153.05 -65.95 198.65 -69.95 L197.6 -78.85 Q145.3 -73.85 99.45 -48.1 M-48.1 -170.0 Q-4.65 -110.85 -0.4 -40.85 L7.8 -40.8 7.45 -44.1 7.25 -46.55 Q-0.5 -119.3 -40.6 -175.6 L-48.1 -170.0 M-227.25 125.95 L-227.25 136.55 -227.25 137.15 Q-201.8 126.7 -180.35 103.25 L-177.45 100.0 Q-136.55 45.6 -83.7 39.55 L-80.6 39.2 -80.1 39.2 -80.5 32.35 -80.55 31.55 -84.6 31.95 -85.1 32.0 Q-140.5 38.45 -179.55 90.0 L-181.85 92.7 Q-202.0 115.6 -227.25 125.95" fill="#ffffff" fill-rule="evenodd" stroke="none">
      <animate attributeName="fill" dur="2s" repeatCount="indefinite" values="#ffffff;#ffffff"/>
      <animate attributeName="fill-opacity" dur="2s" repeatCount="indefinite" values="1.0;1.0"/>
      <animate attributeName="d" dur="2s" repeatCount="indefinite" values="M99.45 -48.1 L104.5 -39.35 Q153.05 -65.95 198.65 -69.95 L197.6 -78.85 Q145.3 -73.85 99.45 -48.1 M-48.1 -170.0 Q-4.65 -110.85 -0.4 -40.85 L7.8 -40.8 7.45 -44.1 7.25 -46.55 Q-0.5 -119.3 -40.6 -175.6 L-48.1 -170.0 M-227.25 125.95 L-227.25 136.55 -227.25 137.15 Q-201.8 126.7 -180.35 103.25 L-177.45 100.0 Q-136.55 45.6 -83.7 39.55 L-80.6 39.2 -80.1 39.2 -80.5 32.35 -80.55 31.55 -84.6 31.95 -85.1 32.0 Q-140.5 38.45 -179.55 90.0 L-181.85 92.7 Q-202.0 115.6 -227.25 125.95;M92.25 -43.95 L97.05 -35.15 Q145.2 -63.1 190.5 -69.05 L189.25 -77.95 Q137.55 -71.3 92.25 -43.95 M-48.1 -170.0 Q-1.45 -106.5 0.0 -30.6 L8.25 -29.8 8.4 -33.3 8.2 -35.75 Q2.45 -114.7 -40.0 -176.0 L-48.1 -170.0 M-227.25 125.95 L-227.25 137.15 -226.65 136.9 Q-199.85 125.7 -177.45 100.0 L-174.55 96.25 Q-130.1 39.6 -71.85 38.8 L-68.55 38.8 -68.55 38.25 -68.55 30.95 -69.4 30.95 -73.7 30.95 -74.0 31.15 Q-135.0 33.35 -177.25 87.05 L-179.55 90.0 Q-200.55 115.0 -227.25 125.95"/>
    </path>
    <path d="M-227.25 125.95 Q-202.0 115.6 -181.85 92.7 L-179.55 90.0 Q-140.5 38.45 -85.1 32.0 L-84.6 31.95 -80.55 31.55 -80.5 32.35 -80.1 39.2 -80.6 39.2 -83.7 39.55 Q-136.55 45.6 -177.45 100.0 L-180.35 103.25 Q-201.8 126.7 -227.25 137.15 L-227.25 136.55 -227.25 125.95 M-48.1 -170.0 L-40.6 -175.6 Q-0.5 -119.3 7.25 -46.55 L7.45 -44.1 7.8 -40.8 -0.4 -40.85 Q-4.65 -110.85 -48.1 -170.0 M99.45 -48.1 Q145.3 -73.85 197.6 -78.85 L198.65 -69.95 Q153.05 -65.95 104.5 -39.35 L99.45 -48.1" fill="none" stroke="#000000" stroke-linecap="round" stroke-linejoin="round" stroke-opacity="0.0" stroke-width="1.0">
      <animate attributeName="stroke" dur="2s" repeatCount="indefinite" values="#000000;#000001"/>
      <animate attributeName="stroke-width" dur="2s" repeatCount="indefinite" values="0.0;0.0"/>
      <animate attributeName="fill-opacity" dur="2s" repeatCount="indefinite" values="0.0;0.0"/>
      <animate attributeName="d" dur="2s" repeatCount="indefinite" values="M-227.25 125.95 Q-202.0 115.6 -181.85 92.7 L-179.55 90.0 Q-140.5 38.45 -85.1 32.0 L-84.6 31.95 -80.55 31.55 -80.5 32.35 -80.1 39.2 -80.6 39.2 -83.7 39.55 Q-136.55 45.6 -177.45 100.0 L-180.35 103.25 Q-201.8 126.7 -227.25 137.15 L-227.25 136.55 -227.25 125.95 M-48.1 -170.0 L-40.6 -175.6 Q-0.5 -119.3 7.25 -46.55 L7.45 -44.1 7.8 -40.8 -0.4 -40.85 Q-4.65 -110.85 -48.1 -170.0 M99.45 -48.1 Q145.3 -73.85 197.6 -78.85 L198.65 -69.95 Q153.05 -65.95 104.5 -39.35 L99.45 -48.1;M-227.25 125.95 Q-200.55 115.0 -179.55 90.0 L-177.25 87.05 Q-135.0 33.35 -74.0 31.15 L-73.7 30.95 -69.4 30.95 -68.55 30.95 -68.55 38.25 -68.55 38.8 -71.85 38.8 Q-130.1 39.6 -174.55 96.25 L-177.45 100.0 Q-199.85 125.7 -226.65 136.9 L-227.25 137.15 -227.25 125.95 M-48.1 -170.0 L-40.0 -176.0 Q2.45 -114.7 8.2 -35.75 L8.4 -33.3 8.25 -29.8 0.0 -30.6 Q-1.45 -106.5 -48.1 -170.0 M92.25 -43.95 Q137.55 -71.3 189.25 -77.95 L190.5 -69.05 Q145.2 -63.1 97.05 -35.15 L92.25 -43.95"/>
    </path>
  </g>
</svg>
