<?xml version="1.0" encoding="UTF-8" standalone="no"?>
<svg xmlns:xlink="http://www.w3.org/1999/xlink" height="313.15px" width="417.75px" xmlns="http://www.w3.org/2000/svg">
  <g transform="matrix(1.0, 0.0, 0.0, 1.0, 227.25, 176.0)">
    <path d="M92.25 -43.95 L97.05 -35.15 Q145.2 -63.1 190.5 -69.05 L189.25 -77.95 Q137.55 -71.3 92.25 -43.95 M-48.1 -170.0 L-48.0 -169.9 Q-3.85 -109.75 -0.3 -38.45 -0.1 -34.55 0.6 -30.5 L8.2 -29.3 8.35 -31.15 8.4 -33.3 8.2 -35.75 Q7.95 -38.8 7.7 -41.8 L7.5 -44.3 Q0.1 -118.4 -40.4 -175.7 L-48.1 -170.0 M-227.25 125.95 L-227.25 137.15 Q-200.1 126.0 -177.45 100.0 -132.0 39.65 -71.85 38.8 L-68.55 38.8 -68.55 30.95 -73.7 30.95 -74.0 31.15 Q-136.65 33.4 -179.55 90.0 -200.55 115.0 -227.25 125.95" fill="#ffffff" fill-rule="evenodd" stroke="none">
      <animate attributeName="fill" dur="2s" repeatCount="indefinite" values="#ffffff;#ffffff"/>
      <animate attributeName="fill-opacity" dur="2s" repeatCount="indefinite" values="1.0;1.0"/>
      <animate attributeName="d" dur="2s" repeatCount="indefinite" values="M92.25 -43.95 L97.05 -35.15 Q145.2 -63.1 190.5 -69.05 L189.25 -77.95 Q137.55 -71.3 92.25 -43.95 M-48.1 -170.0 L-48.0 -169.9 Q-3.85 -109.75 -0.3 -38.45 -0.1 -34.55 0.6 -30.5 L8.2 -29.3 8.35 -31.15 8.4 -33.3 8.2 -35.75 Q7.95 -38.8 7.7 -41.8 L7.5 -44.3 Q0.1 -118.4 -40.4 -175.7 L-48.1 -170.0 M-227.25 125.95 L-227.25 137.15 Q-200.1 126.0 -177.45 100.0 -132.0 39.65 -71.85 38.8 L-68.55 38.8 -68.55 30.95 -73.7 30.95 -74.0 31.15 Q-136.65 33.4 -179.55 90.0 -200.55 115.0 -227.25 125.95;M85.05 -39.45 L90.4 -31.15 Q137.75 -60.05 182.4 -67.8 L180.75 -76.7 Q129.7 -68.35 85.05 -39.45 M-48.1 -170.0 L-48.1 -170.0 Q-1.45 -106.5 0.0 -30.6 -0.55 -26.45 -1.75 -21.65 L6.15 -19.65 6.7 -21.75 7.25 -24.0 7.8 -26.75 Q8.4 -30.25 8.4 -33.3 L8.2 -35.75 Q2.4 -114.8 -40.0 -176.0 L-48.1 -170.0 M-227.25 125.95 L-227.25 137.15 Q-200.1 126.0 -177.45 100.0 -132.0 39.65 -71.85 38.8 L-56.55 38.85 -56.75 30.95 -73.7 30.95 -74.0 31.15 Q-136.65 33.4 -179.55 90.0 -200.55 115.0 -227.25 125.95"/>
    </path>
    <path d="M-227.25 125.95 Q-200.55 115.0 -179.55 90.0 -136.65 33.4 -74.0 31.15 L-73.7 30.95 -68.55 30.95 -68.55 38.8 -71.85 38.8 Q-132.0 39.65 -177.45 100.0 -200.1 126.0 -227.25 137.15 L-227.25 125.95 M-48.1 -170.0 L-40.4 -175.7 Q0.1 -118.4 7.5 -44.3 L7.7 -41.8 Q7.95 -38.8 8.2 -35.75 L8.4 -33.3 8.35 -31.15 8.2 -29.3 0.6 -30.5 Q-0.1 -34.55 -0.3 -38.45 -3.85 -109.75 -48.0 -169.9 L-48.1 -170.0 M92.25 -43.95 Q137.55 -71.3 189.25 -77.95 L190.5 -69.05 Q145.2 -63.1 97.05 -35.15 L92.25 -43.95" fill="none" stroke="#000000" stroke-linecap="round" stroke-linejoin="round" stroke-opacity="0.0" stroke-width="1.0">
      <animate attributeName="stroke" dur="2s" repeatCount="indefinite" values="#000000;#000001"/>
      <animate attributeName="stroke-width" dur="2s" repeatCount="indefinite" values="0.0;0.0"/>
      <animate attributeName="fill-opacity" dur="2s" repeatCount="indefinite" values="0.0;0.0"/>
      <animate attributeName="d" dur="2s" repeatCount="indefinite" values="M-227.25 125.95 Q-200.55 115.0 -179.55 90.0 -136.65 33.4 -74.0 31.15 L-73.7 30.95 -68.55 30.95 -68.55 38.8 -71.85 38.8 Q-132.0 39.65 -177.45 100.0 -200.1 126.0 -227.25 137.15 L-227.25 125.95 M-48.1 -170.0 L-40.4 -175.7 Q0.1 -118.4 7.5 -44.3 L7.7 -41.8 Q7.95 -38.8 8.2 -35.75 L8.4 -33.3 8.35 -31.15 8.2 -29.3 0.6 -30.5 Q-0.1 -34.55 -0.3 -38.45 -3.85 -109.75 -48.0 -169.9 L-48.1 -170.0 M92.25 -43.95 Q137.55 -71.3 189.25 -77.95 L190.5 -69.05 Q145.2 -63.1 97.05 -35.15 L92.25 -43.95;M-227.25 125.95 Q-200.55 115.0 -179.55 90.0 -136.65 33.4 -74.0 31.15 L-73.7 30.95 -56.75 30.95 -56.55 38.85 -71.85 38.8 Q-132.0 39.65 -177.45 100.0 -200.1 126.0 -227.25 137.15 L-227.25 125.95 M-48.1 -170.0 L-40.0 -176.0 Q2.4 -114.8 8.2 -35.75 L8.4 -33.3 Q8.4 -30.25 7.8 -26.75 L7.25 -24.0 6.7 -21.75 6.15 -19.65 -1.75 -21.65 Q-0.55 -26.45 0.0 -30.6 -1.45 -106.5 -48.1 -170.0 L-48.1 -170.0 M85.05 -39.45 Q129.7 -68.35 180.75 -76.7 L182.4 -67.8 Q137.75 -60.05 90.4 -31.15 L85.05 -39.45"/>
    </path>
  </g>
</svg>
