<?xml version="1.0" encoding="UTF-8" standalone="no"?>
<svg xmlns:xlink="http://www.w3.org/1999/xlink" height="313.15px" width="409.65px" xmlns="http://www.w3.org/2000/svg">
  <g transform="matrix(1.0, 0.0, 0.0, 1.0, 227.25, 176.0)">
    <path d="M85.05 -39.45 L90.4 -31.15 Q137.75 -60.05 182.4 -67.8 L180.75 -76.7 Q129.7 -68.35 85.05 -39.45 M-48.1 -170.0 Q-3.55 -109.4 -0.2 -37.45 -0.1 -34.0 0.0 -30.6 L-0.35 -28.1 Q-0.9 -25.0 -1.75 -21.65 2.2 -20.65 6.15 -19.65 L6.7 -21.75 Q7.85 -26.05 8.2 -29.75 L8.4 -33.3 8.2 -35.75 Q8.0 -38.15 7.8 -40.5 L7.6 -43.0 Q0.45 -117.9 -40.4 -175.7 L-48.1 -170.0 M-227.25 125.95 L-227.25 137.15 Q-200.1 126.0 -177.45 100.0 -132.0 39.65 -71.85 38.8 L-56.55 38.85 -56.75 30.95 -73.7 30.95 -74.0 31.15 Q-136.65 33.4 -179.55 90.0 -200.55 115.0 -227.25 125.95" fill="#ffffff" fill-rule="evenodd" stroke="none">
      <animate attributeName="fill" dur="2s" repeatCount="indefinite" values="#ffffff;#ffffff"/>
      <animate attributeName="fill-opacity" dur="2s" repeatCount="indefinite" values="1.0;1.0"/>
      <animate attributeName="d" dur="2s" repeatCount="indefinite" values="M85.05 -39.45 L90.4 -31.15 Q137.75 -60.05 182.4 -67.8 L180.75 -76.7 Q129.7 -68.35 85.05 -39.45 M-48.1 -170.0 Q-3.55 -109.4 -0.2 -37.45 -0.1 -34.0 0.0 -30.6 L-0.35 -28.1 Q-0.9 -25.0 -1.75 -21.65 2.2 -20.65 6.15 -19.65 L6.7 -21.75 Q7.85 -26.05 8.2 -29.75 L8.4 -33.3 8.2 -35.75 Q8.0 -38.15 7.8 -40.5 L7.6 -43.0 Q0.45 -117.9 -40.4 -175.7 L-48.1 -170.0 M-227.25 125.95 L-227.25 137.15 Q-200.1 126.0 -177.45 100.0 -132.0 39.65 -71.85 38.8 L-56.55 38.85 -56.75 30.95 -73.7 30.95 -74.0 31.15 Q-136.65 33.4 -179.55 90.0 -200.55 115.0 -227.25 125.95;M78.0 -34.75 L83.65 -26.95 Q130.05 -56.65 173.9 -66.15 L172.0 -75.1 Q121.85 -65.05 78.0 -34.75 M-48.1 -170.0 Q-1.45 -106.5 0.0 -30.6 -0.5 -27.0 -1.35 -23.35 L-2.0 -20.85 Q-2.95 -17.7 -3.85 -14.55 -0.3 -12.95 3.5 -11.95 L4.3 -14.05 Q5.75 -17.95 6.7 -21.75 L7.55 -25.55 8.0 -28.2 Q8.4 -30.9 8.4 -33.3 L8.2 -35.75 Q2.4 -114.85 -40.0 -176.0 L-48.1 -170.0 M-227.25 125.95 L-227.25 137.15 Q-200.1 126.0 -177.45 100.0 -132.0 39.65 -71.85 38.8 L-44.35 38.9 -44.9 30.95 -73.7 30.95 -74.0 31.15 Q-136.65 33.4 -179.55 90.0 -200.55 115.0 -227.25 125.95"/>
    </path>
    <path d="M-227.25 125.95 Q-200.55 115.0 -179.55 90.0 -136.65 33.4 -74.0 31.15 L-73.7 30.95 -56.75 30.95 -56.55 38.85 -71.85 38.8 Q-132.0 39.65 -177.45 100.0 -200.1 126.0 -227.25 137.15 L-227.25 125.95 M-48.1 -170.0 L-40.4 -175.7 Q0.45 -117.9 7.6 -43.0 L7.8 -40.5 Q8.0 -38.15 8.2 -35.75 L8.4 -33.3 8.2 -29.75 Q7.85 -26.05 6.7 -21.75 L6.15 -19.65 Q2.2 -20.65 -1.75 -21.65 -0.9 -25.0 -0.35 -28.1 L0.0 -30.6 Q-0.1 -34.0 -0.2 -37.45 -3.55 -109.4 -48.1 -170.0 M85.05 -39.45 Q129.7 -68.35 180.75 -76.7 L182.4 -67.8 Q137.75 -60.05 90.4 -31.15 L85.05 -39.45" fill="none" stroke="#000000" stroke-linecap="round" stroke-linejoin="round" stroke-opacity="0.0" stroke-width="1.0">
      <animate attributeName="stroke" dur="2s" repeatCount="indefinite" values="#000000;#000001"/>
      <animate attributeName="stroke-width" dur="2s" repeatCount="indefinite" values="0.0;0.0"/>
      <animate attributeName="fill-opacity" dur="2s" repeatCount="indefinite" values="0.0;0.0"/>
      <animate attributeName="d" dur="2s" repeatCount="indefinite" values="M-227.25 125.95 Q-200.55 115.0 -179.55 90.0 -136.65 33.4 -74.0 31.15 L-73.7 30.95 -56.75 30.95 -56.55 38.85 -71.85 38.8 Q-132.0 39.65 -177.45 100.0 -200.1 126.0 -227.25 137.15 L-227.25 125.95 M-48.1 -170.0 L-40.4 -175.7 Q0.45 -117.9 7.6 -43.0 L7.8 -40.5 Q8.0 -38.15 8.2 -35.75 L8.4 -33.3 8.2 -29.75 Q7.85 -26.05 6.7 -21.75 L6.15 -19.65 Q2.2 -20.65 -1.75 -21.65 -0.9 -25.0 -0.35 -28.1 L0.0 -30.6 Q-0.1 -34.0 -0.2 -37.45 -3.55 -109.4 -48.1 -170.0 M85.05 -39.45 Q129.7 -68.35 180.75 -76.7 L182.4 -67.8 Q137.75 -60.05 90.4 -31.15 L85.05 -39.45;M-227.25 125.95 Q-200.55 115.0 -179.55 90.0 -136.65 33.4 -74.0 31.15 L-73.7 30.95 -44.9 30.95 -44.35 38.9 -71.85 38.8 Q-132.0 39.65 -177.45 100.0 -200.1 126.0 -227.25 137.15 L-227.25 125.95 M-48.1 -170.0 L-40.0 -176.0 Q2.4 -114.85 8.2 -35.75 L8.4 -33.3 Q8.4 -30.9 8.0 -28.2 L7.55 -25.55 6.7 -21.75 Q5.75 -17.95 4.3 -14.05 L3.5 -11.95 Q-0.3 -12.95 -3.85 -14.55 -2.95 -17.7 -2.0 -20.85 L-1.35 -23.35 Q-0.5 -27.0 0.0 -30.6 -1.45 -106.5 -48.1 -170.0 M78.0 -34.75 Q121.85 -65.05 172.0 -75.1 L173.9 -66.15 Q130.05 -56.65 83.65 -26.95 L78.0 -34.75"/>
    </path>
  </g>
</svg>
