<?xml version="1.0" encoding="UTF-8" standalone="no"?>
<svg xmlns:xlink="http://www.w3.org/1999/xlink" height="313.05px" width="401.15px" xmlns="http://www.w3.org/2000/svg">
  <g transform="matrix(1.0, 0.0, 0.0, 1.0, 227.25, 175.9)">
    <path d="M78.0 -34.75 L83.65 -26.95 Q130.05 -56.65 173.9 -66.15 L172.0 -75.1 Q121.85 -65.05 78.0 -34.75 M-48.1 -170.0 Q-3.7 -109.55 -0.25 -37.85 -0.1 -34.2 0.0 -30.6 L-0.35 -28.15 Q-1.0 -24.5 -2.0 -20.85 L-4.05 -14.65 3.25 -11.35 4.95 -16.0 6.7 -21.75 Q7.85 -26.1 8.2 -29.85 L8.4 -33.3 8.2 -35.75 7.7 -41.1 7.5 -43.7 Q0.25 -118.15 -40.2 -175.9 L-48.1 -170.0 M-227.25 125.95 L-227.25 137.15 Q-200.1 126.0 -177.45 100.0 -132.0 39.65 -71.85 38.8 L-44.35 38.9 -44.9 30.95 -73.7 30.95 -74.0 31.15 Q-136.65 33.4 -179.55 90.0 -200.55 115.0 -227.25 125.95" fill="#ffffff" fill-rule="evenodd" stroke="none">
      <animate attributeName="fill" dur="2s" repeatCount="indefinite" values="#ffffff;#ffffff"/>
      <animate attributeName="fill-opacity" dur="2s" repeatCount="indefinite" values="1.0;1.0"/>
      <animate attributeName="d" dur="2s" repeatCount="indefinite" values="M78.0 -34.75 L83.65 -26.95 Q130.05 -56.65 173.9 -66.15 L172.0 -75.1 Q121.85 -65.05 78.0 -34.75 M-48.1 -170.0 Q-3.7 -109.55 -0.25 -37.85 -0.1 -34.2 0.0 -30.6 L-0.35 -28.15 Q-1.0 -24.5 -2.0 -20.85 L-4.05 -14.65 3.25 -11.35 4.95 -16.0 6.7 -21.75 Q7.85 -26.1 8.2 -29.85 L8.4 -33.3 8.2 -35.75 7.7 -41.1 7.5 -43.7 Q0.25 -118.15 -40.2 -175.9 L-48.1 -170.0 M-227.25 125.95 L-227.25 137.15 Q-200.1 126.0 -177.45 100.0 -132.0 39.65 -71.85 38.8 L-44.35 38.9 -44.9 30.95 -73.7 30.95 -74.0 31.15 Q-136.65 33.4 -179.55 90.0 -200.55 115.0 -227.25 125.95;M71.45 -30.05 L76.9 -22.55 Q122.4 -52.95 165.45 -64.1 L163.3 -73.2 Q114.3 -61.5 71.45 -30.05 M-44.3 -164.7 Q-1.4 -103.35 0.0 -30.6 -0.5 -26.95 -1.35 -23.25 L-2.0 -20.85 Q-3.05 -17.25 -4.4 -13.9 L-7.05 -7.65 -0.15 -3.75 1.95 -8.3 4.3 -14.15 Q5.75 -18.0 6.7 -21.75 L7.5 -25.25 7.95 -27.8 8.4 -33.3 8.2 -35.75 Q2.65 -111.3 -36.15 -170.35 L-44.3 -164.7 M-227.25 125.95 L-227.25 137.15 Q-200.1 126.0 -177.45 100.0 -132.0 39.65 -71.85 38.8 L-32.7 38.95 -32.9 30.95 -73.7 30.95 -74.0 31.15 Q-136.65 33.4 -179.55 90.0 -200.55 115.0 -227.25 125.95"/>
    </path>
    <path d="M-227.25 125.95 Q-200.55 115.0 -179.55 90.0 -136.65 33.4 -74.0 31.15 L-73.7 30.95 -44.9 30.95 -44.35 38.9 -71.85 38.8 Q-132.0 39.65 -177.45 100.0 -200.1 126.0 -227.25 137.15 L-227.25 125.95 M-48.1 -170.0 L-40.2 -175.9 Q0.25 -118.15 7.5 -43.7 L7.7 -41.1 8.2 -35.75 8.4 -33.3 8.2 -29.85 Q7.85 -26.1 6.7 -21.75 L4.95 -16.0 3.25 -11.35 -4.05 -14.65 -2.0 -20.85 Q-1.0 -24.5 -0.35 -28.15 L0.0 -30.6 Q-0.1 -34.2 -0.25 -37.85 -3.7 -109.55 -48.1 -170.0 M78.0 -34.75 Q121.85 -65.05 172.0 -75.1 L173.9 -66.15 Q130.05 -56.65 83.65 -26.95 L78.0 -34.75" fill="none" stroke="#000000" stroke-linecap="round" stroke-linejoin="round" stroke-opacity="0.0" stroke-width="1.0">
      <animate attributeName="stroke" dur="2s" repeatCount="indefinite" values="#000000;#000001"/>
      <animate attributeName="stroke-width" dur="2s" repeatCount="indefinite" values="0.0;0.0"/>
      <animate attributeName="fill-opacity" dur="2s" repeatCount="indefinite" values="0.0;0.0"/>
      <animate attributeName="d" dur="2s" repeatCount="indefinite" values="M-227.25 125.95 Q-200.55 115.0 -179.55 90.0 -136.65 33.4 -74.0 31.15 L-73.7 30.95 -44.9 30.95 -44.35 38.9 -71.85 38.8 Q-132.0 39.65 -177.45 100.0 -200.1 126.0 -227.25 137.15 L-227.25 125.95 M-48.1 -170.0 L-40.2 -175.9 Q0.25 -118.15 7.5 -43.7 L7.7 -41.1 8.2 -35.75 8.4 -33.3 8.2 -29.85 Q7.85 -26.1 6.7 -21.75 L4.95 -16.0 3.25 -11.35 -4.05 -14.65 -2.0 -20.85 Q-1.0 -24.5 -0.35 -28.15 L0.0 -30.6 Q-0.1 -34.2 -0.25 -37.85 -3.7 -109.55 -48.1 -170.0 M78.0 -34.75 Q121.85 -65.05 172.0 -75.1 L173.9 -66.15 Q130.05 -56.65 83.65 -26.95 L78.0 -34.75;M-227.25 125.95 Q-200.55 115.0 -179.55 90.0 -136.65 33.4 -74.0 31.15 L-73.7 30.95 -32.9 30.95 -32.7 38.95 -71.85 38.8 Q-132.0 39.65 -177.45 100.0 -200.1 126.0 -227.25 137.15 L-227.25 125.95 M-44.3 -164.7 L-36.15 -170.35 Q2.65 -111.3 8.2 -35.75 L8.4 -33.3 7.95 -27.8 7.5 -25.25 6.7 -21.75 Q5.75 -18.0 4.3 -14.15 L1.95 -8.3 -0.15 -3.75 -7.05 -7.65 -4.4 -13.9 Q-3.05 -17.25 -2.0 -20.85 L-1.35 -23.25 Q-0.5 -26.95 0.0 -30.6 -1.4 -103.35 -44.3 -164.7 M71.45 -30.05 Q114.3 -61.5 163.3 -73.2 L165.45 -64.1 Q122.4 -52.95 76.9 -22.55 L71.45 -30.05"/>
    </path>
  </g>
</svg>
