<?xml version="1.0" encoding="UTF-8" standalone="no"?>
<svg xmlns:xlink="http://www.w3.org/1999/xlink" height="307.5px" width="392.7px" xmlns="http://www.w3.org/2000/svg">
  <g transform="matrix(1.0, 0.0, 0.0, 1.0, 227.25, 170.35)">
    <path d="M71.45 -30.05 L76.9 -22.55 Q122.4 -52.95 165.45 -64.1 L163.3 -73.2 Q114.3 -61.5 71.45 -30.05 M-44.3 -164.7 Q-1.4 -103.35 0.0 -30.6 -0.65 -25.75 -2.0 -20.85 -3.85 -14.5 -6.55 -8.95 -6.85 -8.3 -7.15 -7.7 L-0.25 -3.65 Q0.85 -6.0 1.95 -8.3 5.0 -15.2 6.7 -21.75 8.4 -28.2 8.2 -35.75 2.65 -111.45 -36.15 -170.35 L-44.3 -164.7 M-227.25 125.95 L-227.25 137.15 Q-200.1 126.0 -177.45 100.0 -132.0 39.65 -71.85 38.8 L-32.7 38.95 -32.9 30.95 -73.7 30.95 -74.0 31.15 Q-136.65 33.4 -179.55 90.0 -200.55 115.0 -227.25 125.95" fill="#ffffff" fill-rule="evenodd" stroke="none">
      <animate attributeName="fill" dur="2s" repeatCount="indefinite" values="#ffffff;#ffffff"/>
      <animate attributeName="fill-opacity" dur="2s" repeatCount="indefinite" values="1.0;1.0"/>
      <animate attributeName="d" dur="2s" repeatCount="indefinite" values="M71.45 -30.05 L76.9 -22.55 Q122.4 -52.95 165.45 -64.1 L163.3 -73.2 Q114.3 -61.5 71.45 -30.05 M-44.3 -164.7 Q-1.4 -103.35 0.0 -30.6 -0.65 -25.75 -2.0 -20.85 -3.85 -14.5 -6.55 -8.95 -6.85 -8.3 -7.15 -7.7 L-0.25 -3.65 Q0.85 -6.0 1.95 -8.3 5.0 -15.2 6.7 -21.75 8.4 -28.2 8.2 -35.75 2.65 -111.45 -36.15 -170.35 L-44.3 -164.7 M-227.25 125.95 L-227.25 137.15 Q-200.1 126.0 -177.45 100.0 -132.0 39.65 -71.85 38.8 L-32.7 38.95 -32.9 30.95 -73.7 30.95 -74.0 31.15 Q-136.65 33.4 -179.55 90.0 -200.55 115.0 -227.25 125.95;M64.65 -24.9 L70.35 -18.1 Q115.2 -49.3 157.7 -61.95 L155.05 -71.05 Q106.8 -57.8 64.65 -24.9 M-39.25 -157.25 Q-1.3 -98.95 0.0 -30.6 -0.65 -25.75 -2.0 -20.85 -3.85 -14.5 -6.55 -8.95 -8.55 -4.8 -11.0 -1.0 L-4.3 3.4 Q-0.9 -1.85 1.95 -8.3 5.0 -15.2 6.7 -21.75 8.4 -28.2 8.2 -35.75 3.0 -106.65 -31.35 -162.8 L-39.25 -157.25 M-227.25 125.95 L-227.25 137.15 Q-200.1 126.0 -177.45 100.0 -132.0 39.65 -71.85 38.8 L-20.5 38.95 -20.5 30.95 -73.7 30.95 -74.0 31.15 Q-136.65 33.4 -179.55 90.0 -200.55 115.0 -227.25 125.95"/>
    </path>
    <path d="M-227.25 125.95 Q-200.55 115.0 -179.55 90.0 -136.65 33.4 -74.0 31.15 L-73.7 30.95 -32.9 30.95 -32.7 38.95 -71.85 38.8 Q-132.0 39.65 -177.45 100.0 -200.1 126.0 -227.25 137.15 L-227.25 125.95 M-44.3 -164.7 L-36.15 -170.35 Q2.65 -111.45 8.2 -35.75 8.4 -28.2 6.7 -21.75 5.0 -15.2 1.95 -8.3 0.85 -6.0 -0.25 -3.65 L-7.15 -7.7 Q-6.85 -8.3 -6.55 -8.95 -3.85 -14.5 -2.0 -20.85 -0.65 -25.75 0.0 -30.6 -1.4 -103.35 -44.3 -164.7 M71.45 -30.05 Q114.3 -61.5 163.3 -73.2 L165.45 -64.1 Q122.4 -52.95 76.9 -22.55 L71.45 -30.05" fill="none" stroke="#000000" stroke-linecap="round" stroke-linejoin="round" stroke-opacity="0.0" stroke-width="1.0">
      <animate attributeName="stroke" dur="2s" repeatCount="indefinite" values="#000000;#000001"/>
      <animate attributeName="stroke-width" dur="2s" repeatCount="indefinite" values="0.0;0.0"/>
      <animate attributeName="fill-opacity" dur="2s" repeatCount="indefinite" values="0.0;0.0"/>
      <animate attributeName="d" dur="2s" repeatCount="indefinite" values="M-227.25 125.95 Q-200.55 115.0 -179.55 90.0 -136.65 33.4 -74.0 31.15 L-73.7 30.95 -32.9 30.95 -32.7 38.95 -71.85 38.8 Q-132.0 39.65 -177.45 100.0 -200.1 126.0 -227.25 137.15 L-227.25 125.95 M-44.3 -164.7 L-36.15 -170.35 Q2.65 -111.45 8.2 -35.75 8.4 -28.2 6.7 -21.75 5.0 -15.2 1.95 -8.3 0.85 -6.0 -0.25 -3.65 L-7.15 -7.7 Q-6.85 -8.3 -6.55 -8.95 -3.85 -14.5 -2.0 -20.85 -0.65 -25.75 0.0 -30.6 -1.4 -103.35 -44.3 -164.7 M71.45 -30.05 Q114.3 -61.5 163.3 -73.2 L165.45 -64.1 Q122.4 -52.95 76.9 -22.55 L71.45 -30.05;M-227.25 125.95 Q-200.55 115.0 -179.55 90.0 -136.65 33.4 -74.0 31.15 L-73.7 30.95 -20.5 30.95 -20.5 38.95 -71.85 38.8 Q-132.0 39.65 -177.45 100.0 -200.1 126.0 -227.25 137.15 L-227.25 125.95 M-39.25 -157.25 L-31.35 -162.8 Q3.0 -106.65 8.2 -35.75 8.4 -28.2 6.7 -21.75 5.0 -15.2 1.95 -8.3 -0.9 -1.85 -4.3 3.4 L-11.0 -1.0 Q-8.55 -4.8 -6.55 -8.95 -3.85 -14.5 -2.0 -20.85 -0.65 -25.75 0.0 -30.6 -1.3 -98.95 -39.25 -157.25 M64.65 -24.9 Q106.8 -57.8 155.05 -71.05 L157.7 -61.95 Q115.2 -49.3 70.35 -18.1 L64.65 -24.9"/>
    </path>
  </g>
</svg>
