<?xml version="1.0" encoding="UTF-8" standalone="no"?>
<svg xmlns:xlink="http://www.w3.org/1999/xlink" height="299.85px" width="384.95px" xmlns="http://www.w3.org/2000/svg">
  <g transform="matrix(1.0, 0.0, 0.0, 1.0, 227.25, 162.7)">
    <path d="M64.65 -24.9 L70.35 -18.1 Q115.2 -49.3 157.7 -61.95 L155.05 -71.05 Q106.8 -57.8 64.65 -24.9 M-39.25 -157.25 Q-3.6 -102.45 -0.3 -38.8 -0.15 -34.7 0.0 -30.6 L-0.2 -29.0 Q-0.85 -24.95 -2.0 -20.85 L-3.4 -16.55 Q-4.8 -12.6 -6.55 -8.95 L-8.4 -5.35 -10.9 -0.9 Q-7.6 1.25 -4.1 3.1 -1.85 -0.45 0.1 -4.45 L1.95 -8.3 Q4.05 -13.05 5.5 -17.7 L6.7 -21.75 Q8.15 -27.3 8.4 -33.3 L8.2 -35.75 Q7.85 -39.45 7.55 -43.1 L7.35 -45.7 Q0.55 -110.6 -31.55 -162.7 L-39.25 -157.25 M-227.25 125.95 L-227.25 137.15 Q-200.1 126.0 -177.45 100.0 -132.0 39.65 -71.85 38.8 L-20.5 38.95 -20.5 30.95 -73.7 30.95 -74.0 31.15 Q-136.65 33.4 -179.55 90.0 -200.55 115.0 -227.25 125.95" fill="#ffffff" fill-rule="evenodd" stroke="none">
      <animate attributeName="fill" dur="2s" repeatCount="indefinite" values="#ffffff;#ffffff"/>
      <animate attributeName="fill-opacity" dur="2s" repeatCount="indefinite" values="1.0;1.0"/>
      <animate attributeName="d" dur="2s" repeatCount="indefinite" values="M64.65 -24.9 L70.35 -18.1 Q115.2 -49.3 157.7 -61.95 L155.05 -71.05 Q106.8 -57.8 64.65 -24.9 M-39.25 -157.25 Q-3.6 -102.45 -0.3 -38.8 -0.15 -34.7 0.0 -30.6 L-0.2 -29.0 Q-0.85 -24.95 -2.0 -20.85 L-3.4 -16.55 Q-4.8 -12.6 -6.55 -8.95 L-8.4 -5.35 -10.9 -0.9 Q-7.6 1.25 -4.1 3.1 -1.85 -0.45 0.1 -4.45 L1.95 -8.3 Q4.05 -13.05 5.5 -17.7 L6.7 -21.75 Q8.15 -27.3 8.4 -33.3 L8.2 -35.75 Q7.85 -39.45 7.55 -43.1 L7.35 -45.7 Q0.55 -110.6 -31.55 -162.7 L-39.25 -157.25 M-227.25 125.95 L-227.25 137.15 Q-200.1 126.0 -177.45 100.0 -132.0 39.65 -71.85 38.8 L-20.5 38.95 -20.5 30.95 -73.7 30.95 -74.0 31.15 Q-136.65 33.4 -179.55 90.0 -200.55 115.0 -227.25 125.95;M58.5 -20.0 L63.7 -13.35 Q107.95 -45.4 149.95 -59.5 L147.6 -68.9 Q100.05 -54.15 58.5 -20.0 M-34.85 -150.2 Q-1.25 -94.85 0.0 -30.6 -0.55 -26.5 -1.6 -22.35 L-2.0 -20.85 Q-3.2 -16.8 -4.75 -13.05 L-6.55 -8.95 Q-8.35 -5.2 -10.55 -1.75 L-12.85 1.65 -16.15 5.8 Q-13.15 8.45 -10.15 11.1 -7.35 7.9 -4.85 4.15 L-2.6 0.6 Q-0.15 -3.5 1.95 -8.3 L3.6 -12.3 Q5.5 -17.1 7.05 -23.15 L7.6 -25.75 Q8.4 -29.85 8.4 -33.3 L8.2 -35.75 Q3.4 -101.2 -26.4 -154.35 L-34.85 -150.2 M-221.05 123.2 L-216.85 132.25 Q-195.7 120.9 -177.45 100.0 -132.0 39.65 -71.85 38.8 L-8.65 39.0 -7.6 30.95 -73.7 30.95 -74.0 31.15 Q-136.65 33.4 -179.55 90.0 -198.1 112.05 -221.05 123.2"/>
    </path>
    <path d="M-227.25 125.95 Q-200.55 115.0 -179.55 90.0 -136.65 33.4 -74.0 31.15 L-73.7 30.95 -20.5 30.95 -20.5 38.95 -71.85 38.8 Q-132.0 39.65 -177.45 100.0 -200.1 126.0 -227.25 137.15 L-227.25 125.95 M-39.25 -157.25 L-31.55 -162.7 Q0.55 -110.6 7.35 -45.7 L7.55 -43.1 Q7.85 -39.45 8.2 -35.75 L8.4 -33.3 Q8.15 -27.3 6.7 -21.75 L5.5 -17.7 Q4.05 -13.05 1.95 -8.3 L0.1 -4.45 Q-1.85 -0.45 -4.1 3.1 -7.6 1.25 -10.9 -0.9 L-8.4 -5.35 -6.55 -8.95 Q-4.8 -12.6 -3.4 -16.55 L-2.0 -20.85 Q-0.85 -24.95 -0.2 -29.0 L0.0 -30.6 Q-0.15 -34.7 -0.3 -38.8 -3.6 -102.45 -39.25 -157.25 M64.65 -24.9 Q106.8 -57.8 155.05 -71.05 L157.7 -61.95 Q115.2 -49.3 70.35 -18.1 L64.65 -24.9" fill="none" stroke="#000000" stroke-linecap="round" stroke-linejoin="round" stroke-opacity="0.0" stroke-width="1.0">
      <animate attributeName="stroke" dur="2s" repeatCount="indefinite" values="#000000;#000001"/>
      <animate attributeName="stroke-width" dur="2s" repeatCount="indefinite" values="0.0;0.0"/>
      <animate attributeName="fill-opacity" dur="2s" repeatCount="indefinite" values="0.0;0.0"/>
      <animate attributeName="d" dur="2s" repeatCount="indefinite" values="M-227.25 125.95 Q-200.55 115.0 -179.55 90.0 -136.65 33.4 -74.0 31.15 L-73.7 30.95 -20.5 30.95 -20.5 38.95 -71.85 38.8 Q-132.0 39.65 -177.45 100.0 -200.1 126.0 -227.25 137.15 L-227.25 125.95 M-39.25 -157.25 L-31.55 -162.7 Q0.55 -110.6 7.35 -45.7 L7.55 -43.1 Q7.85 -39.45 8.2 -35.75 L8.4 -33.3 Q8.15 -27.3 6.7 -21.75 L5.5 -17.7 Q4.05 -13.05 1.95 -8.3 L0.1 -4.45 Q-1.85 -0.45 -4.1 3.1 -7.6 1.25 -10.9 -0.9 L-8.4 -5.35 -6.55 -8.95 Q-4.8 -12.6 -3.4 -16.55 L-2.0 -20.85 Q-0.85 -24.95 -0.2 -29.0 L0.0 -30.6 Q-0.15 -34.7 -0.3 -38.8 -3.6 -102.45 -39.25 -157.25 M64.65 -24.9 Q106.8 -57.8 155.05 -71.05 L157.7 -61.95 Q115.2 -49.3 70.35 -18.1 L64.65 -24.9;M-221.05 123.2 Q-198.1 112.05 -179.55 90.0 -136.65 33.4 -74.0 31.15 L-73.7 30.95 -7.6 30.95 -8.65 39.0 -71.85 38.8 Q-132.0 39.65 -177.45 100.0 -195.7 120.9 -216.85 132.25 L-221.05 123.2 M-34.85 -150.2 L-26.4 -154.35 Q3.4 -101.2 8.2 -35.75 L8.4 -33.3 Q8.4 -29.85 7.6 -25.75 L7.05 -23.15 Q5.5 -17.1 3.6 -12.3 L1.95 -8.3 Q-0.15 -3.5 -2.6 0.6 L-4.85 4.15 Q-7.35 7.9 -10.15 11.1 -13.15 8.45 -16.15 5.8 L-12.85 1.65 -10.55 -1.75 Q-8.35 -5.2 -6.55 -8.95 L-4.75 -13.05 Q-3.2 -16.8 -2.0 -20.85 L-1.6 -22.35 Q-0.55 -26.5 0.0 -30.6 -1.25 -94.85 -34.85 -150.2 M58.5 -20.0 Q100.05 -54.15 147.6 -68.9 L149.95 -59.5 Q107.95 -45.4 63.7 -13.35 L58.5 -20.0"/>
    </path>
  </g>
</svg>
