<?xml version="1.0" encoding="UTF-8" standalone="no"?>
<svg xmlns:xlink="http://www.w3.org/1999/xlink" height="286.5px" width="371.0px" xmlns="http://www.w3.org/2000/svg">
  <g transform="matrix(1.0, 0.0, 0.0, 1.0, 221.05, 154.25)">
    <path d="M58.5 -20.0 L63.7 -13.35 Q107.9 -45.35 149.95 -59.5 L147.6 -68.9 Q103.55 -55.25 64.65 -24.9 L58.5 -20.0 M-34.85 -150.2 Q-3.8 -99.05 -0.4 -40.35 -0.2 -35.45 0.0 -30.6 -0.65 -25.75 -2.0 -20.85 L-2.85 -18.1 Q-4.45 -13.3 -6.55 -8.95 L-7.7 -6.7 Q-10.0 -2.3 -12.85 1.65 L-13.85 3.0 -15.25 4.7 -16.15 5.8 -11.25 10.1 -10.15 11.1 Q-7.85 8.5 -4.85 4.15 -2.3 0.45 -0.1 -3.95 L1.95 -8.3 Q3.95 -12.8 5.35 -17.1 L6.7 -21.75 Q8.05 -26.95 8.35 -31.25 L8.4 -33.3 8.2 -35.75 Q7.9 -39.1 7.6 -42.45 L7.4 -45.05 Q1.25 -105.15 -26.7 -154.25 L-34.85 -150.2 M-221.05 123.2 L-216.85 132.25 Q-195.7 120.9 -177.45 100.0 -132.0 39.65 -71.85 38.8 L-8.65 39.0 -7.6 30.95 -73.7 30.95 -74.0 31.15 Q-136.65 33.4 -179.55 90.0 -198.1 112.05 -221.05 123.2" fill="#ffffff" fill-rule="evenodd" stroke="none">
      <animate attributeName="fill" dur="2s" repeatCount="indefinite" values="#ffffff;#ffffff"/>
      <animate attributeName="fill-opacity" dur="2s" repeatCount="indefinite" values="1.0;1.0"/>
      <animate attributeName="d" dur="2s" repeatCount="indefinite" values="M58.5 -20.0 L63.7 -13.35 Q107.9 -45.35 149.95 -59.5 L147.6 -68.9 Q103.55 -55.25 64.65 -24.9 L58.5 -20.0 M-34.85 -150.2 Q-3.8 -99.05 -0.4 -40.35 -0.2 -35.45 0.0 -30.6 -0.65 -25.75 -2.0 -20.85 L-2.85 -18.1 Q-4.45 -13.3 -6.55 -8.95 L-7.7 -6.7 Q-10.0 -2.3 -12.85 1.65 L-13.85 3.0 -15.25 4.7 -16.15 5.8 -11.25 10.1 -10.15 11.1 Q-7.85 8.5 -4.85 4.15 -2.3 0.45 -0.1 -3.95 L1.95 -8.3 Q3.95 -12.8 5.35 -17.1 L6.7 -21.75 Q8.05 -26.95 8.35 -31.25 L8.4 -33.3 8.2 -35.75 Q7.9 -39.1 7.6 -42.45 L7.4 -45.05 Q1.25 -105.15 -26.7 -154.25 L-34.85 -150.2 M-221.05 123.2 L-216.85 132.25 Q-195.7 120.9 -177.45 100.0 -132.0 39.65 -71.85 38.8 L-8.65 39.0 -7.6 30.95 -73.7 30.95 -74.0 31.15 Q-136.65 33.4 -179.55 90.0 -198.1 112.05 -221.05 123.2;M52.4 -15.15 L58.1 -9.2 Q101.65 -41.8 142.9 -57.15 L139.5 -66.2 Q96.5 -51.25 58.5 -20.0 L52.4 -15.15 M-29.9 -141.7 Q-1.15 -89.95 0.0 -30.6 -0.65 -25.75 -2.1 -20.65 -3.45 -15.85 -5.3 -11.55 L-6.55 -8.95 Q-8.75 -4.5 -11.4 -0.45 L-12.85 1.65 Q-15.85 5.85 -19.35 9.15 L-20.65 10.35 -22.35 11.75 -21.65 12.85 -18.05 18.4 -16.95 17.5 Q-14.15 15.3 -10.5 11.4 -7.45 8.15 -4.85 4.15 L-2.25 0.05 Q0.0 -3.85 1.95 -8.3 L3.8 -12.85 Q5.55 -17.4 6.7 -21.75 L7.25 -23.8 7.75 -26.35 Q8.4 -30.1 8.4 -33.3 L8.2 -35.75 Q3.75 -96.3 -22.1 -146.4 L-29.9 -141.7 M-211.65 118.05 L-206.95 126.3 Q-191.35 115.95 -177.45 100.0 -132.0 39.65 -71.85 38.8 L3.55 39.05 3.0 30.95 -73.7 30.95 -74.0 31.15 Q-136.65 33.4 -179.55 90.0 -194.2 107.45 -211.65 118.05"/>
    </path>
    <path d="M-221.05 123.2 Q-198.1 112.05 -179.55 90.0 -136.65 33.4 -74.0 31.15 L-73.7 30.95 -7.6 30.95 -8.65 39.0 -71.85 38.8 Q-132.0 39.65 -177.45 100.0 -195.7 120.9 -216.85 132.25 L-221.05 123.2 M-34.85 -150.2 L-26.7 -154.25 Q1.25 -105.15 7.4 -45.05 L7.6 -42.45 Q7.9 -39.1 8.2 -35.75 L8.4 -33.3 8.35 -31.25 Q8.05 -26.95 6.7 -21.75 L5.35 -17.1 Q3.95 -12.8 1.95 -8.3 L-0.1 -3.95 Q-2.3 0.45 -4.85 4.15 -7.85 8.5 -10.15 11.1 L-11.25 10.1 -16.15 5.8 -15.25 4.7 -13.85 3.0 -12.85 1.65 Q-10.0 -2.3 -7.7 -6.7 L-6.55 -8.95 Q-4.45 -13.3 -2.85 -18.1 L-2.0 -20.85 Q-0.65 -25.75 0.0 -30.6 -0.2 -35.45 -0.4 -40.35 -3.8 -99.05 -34.85 -150.2 M58.5 -20.0 L64.65 -24.9 Q103.55 -55.25 147.6 -68.9 L149.95 -59.5 Q107.9 -45.35 63.7 -13.35 L58.5 -20.0" fill="none" stroke="#000000" stroke-linecap="round" stroke-linejoin="round" stroke-opacity="0.0" stroke-width="1.0">
      <animate attributeName="stroke" dur="2s" repeatCount="indefinite" values="#000000;#000001"/>
      <animate attributeName="stroke-width" dur="2s" repeatCount="indefinite" values="0.0;0.0"/>
      <animate attributeName="fill-opacity" dur="2s" repeatCount="indefinite" values="0.0;0.0"/>
      <animate attributeName="d" dur="2s" repeatCount="indefinite" values="M-221.05 123.2 Q-198.1 112.05 -179.55 90.0 -136.65 33.4 -74.0 31.15 L-73.7 30.95 -7.6 30.95 -8.65 39.0 -71.85 38.8 Q-132.0 39.65 -177.45 100.0 -195.7 120.9 -216.85 132.25 L-221.05 123.2 M-34.85 -150.2 L-26.7 -154.25 Q1.25 -105.15 7.4 -45.05 L7.6 -42.45 Q7.9 -39.1 8.2 -35.75 L8.4 -33.3 8.35 -31.25 Q8.05 -26.95 6.7 -21.75 L5.35 -17.1 Q3.95 -12.8 1.95 -8.3 L-0.1 -3.95 Q-2.3 0.45 -4.85 4.15 -7.85 8.5 -10.15 11.1 L-11.25 10.1 -16.15 5.8 -15.25 4.7 -13.85 3.0 -12.85 1.65 Q-10.0 -2.3 -7.7 -6.7 L-6.55 -8.95 Q-4.45 -13.3 -2.85 -18.1 L-2.0 -20.85 Q-0.65 -25.75 0.0 -30.6 -0.2 -35.45 -0.4 -40.35 -3.8 -99.05 -34.85 -150.2 M58.5 -20.0 L64.65 -24.9 Q103.55 -55.25 147.6 -68.9 L149.95 -59.5 Q107.9 -45.35 63.7 -13.35 L58.5 -20.0;M-211.65 118.05 Q-194.2 107.45 -179.55 90.0 -136.65 33.4 -74.0 31.15 L-73.7 30.95 3.0 30.95 3.55 39.05 -71.85 38.8 Q-132.0 39.65 -177.45 100.0 -191.35 115.95 -206.95 126.3 L-211.65 118.05 M-29.9 -141.7 L-22.1 -146.4 Q3.75 -96.3 8.2 -35.75 L8.4 -33.3 Q8.4 -30.1 7.75 -26.35 L7.25 -23.8 6.7 -21.75 Q5.55 -17.4 3.8 -12.85 L1.95 -8.3 Q0.0 -3.85 -2.25 0.05 L-4.85 4.15 Q-7.45 8.15 -10.5 11.4 -14.15 15.3 -16.95 17.5 L-18.05 18.4 -21.65 12.85 -22.35 11.75 -20.65 10.35 -19.35 9.15 Q-15.85 5.85 -12.85 1.65 L-11.4 -0.45 Q-8.75 -4.5 -6.55 -8.95 L-5.3 -11.55 Q-3.45 -15.85 -2.1 -20.65 -0.65 -25.75 0.0 -30.6 -1.15 -89.95 -29.9 -141.7 M52.4 -15.15 L58.5 -20.0 Q96.5 -51.25 139.5 -66.2 L142.9 -57.15 Q101.65 -41.8 58.1 -9.2 L52.4 -15.15"/>
    </path>
  </g>
</svg>
