<?xml version="1.0" encoding="UTF-8" standalone="no"?>
<svg xmlns:xlink="http://www.w3.org/1999/xlink" height="65.5px" width="86.2px" xmlns="http://www.w3.org/2000/svg">
  <g transform="matrix(1.0, 0.0, 0.0, 1.0, 43.05, 32.7)">
    <path d="M-40.0 10.25 L-40.0 -25.3 Q-39.85 -29.85 -35.3 -30.0 L35.4 -30.0 Q39.9 -29.85 40.05 -25.3 38.75 11.7 24.0 17.75 L-27.25 17.75 Q-36.35 16.7 -40.0 10.25" fill="#998357" fill-rule="evenodd" stroke="none"/>
    <path d="M-40.0 10.25 Q-36.35 16.7 -27.25 17.75 L24.0 17.75 Q38.75 11.7 40.05 -25.3 L40.05 25.35 Q39.9 29.85 35.4 30.0 L-35.3 30.0 Q-39.85 29.85 -40.0 25.35 L-40.0 10.25" fill="#806e49" fill-rule="evenodd" stroke="none"/>
    <path d="M40.05 -25.3 L40.1 -16.85 39.85 -9.25 Q39.7 -5.25 40.6 -1.3 41.55 2.65 40.8 6.5 L39.25 14.1 Q38.45 17.85 38.35 21.1 38.3 24.4 36.1 27.2 33.95 30.05 30.6 29.5 27.3 28.95 22.7 29.65 L14.35 30.15 6.2 29.5 Q1.8 29.1 -2.55 29.4 L-10.05 29.9 -17.85 29.6 Q-22.5 29.15 -26.55 30.35 -30.6 31.55 -33.85 29.65 -37.05 27.8 -38.75 25.35 -40.4 22.95 -40.15 18.3 -39.9 13.65 -40.6 9.1 -41.3 4.6 -40.5 0.8 -39.7 -3.0 -39.9 -7.45 -40.05 -11.85 -40.85 -15.15 -41.65 -18.4 -39.55 -23.05 -37.45 -27.7 -35.45 -29.2 -33.45 -30.65 -29.05 -30.35 -24.6 -30.05 -21.95 -30.5 -19.25 -30.9 -14.5 -30.55 L-5.75 -30.1 3.1 -29.75 Q7.95 -29.45 11.9 -29.55 L18.9 -30.15 Q22.0 -30.6 26.15 -30.0 L33.9 -29.0 Q37.5 -28.65 38.3 -27.2 39.15 -25.75 40.05 -25.3 Z" fill="none" stroke="#000000" stroke-linecap="round" stroke-linejoin="round" stroke-width="4.0"/>
  </g>
</svg>
