<?xml version="1.0" encoding="UTF-8" standalone="no"?>
<svg xmlns:xlink="http://www.w3.org/1999/xlink" height="24.55px" width="26.0px" xmlns="http://www.w3.org/2000/svg">
  <g transform="matrix(1.0, 0.0, 0.0, 1.0, 0.5, 22.8)">
    <path d="M13.2 -19.9 L12.55 -19.35 Q9.4 -16.2 9.4 -11.75 9.4 -7.3 12.55 -4.15 15.25 -1.45 18.85 -1.05 16.05 0.75 12.5 0.75 7.55 0.75 4.0 -2.8 0.5 -6.3 0.5 -11.25 0.5 -16.2 4.0 -19.75 5.3 -21.0 6.75 -21.8 L13.2 -19.9" fill="#ffffff" fill-rule="evenodd" stroke="none"/>
    <path d="M23.7 -6.9 Q22.2 -5.75 20.15 -5.75 17.65 -5.75 15.9 -7.5 14.15 -9.25 14.15 -11.75 14.15 -14.25 15.9 -16.0 17.65 -17.75 20.15 -17.75 L20.6 -17.7 23.1 -17.0 20.6 -17.7 Q21.95 -17.65 23.05 -17.05 L23.1 -17.0 Q24.5 -14.4 24.5 -11.25 24.5 -8.9 23.7 -6.9" fill="#000000" fill-rule="evenodd" stroke="none"/>
    <path d="M18.85 -1.05 Q15.25 -1.45 12.55 -4.15 9.4 -7.3 9.4 -11.75 9.4 -16.2 12.55 -19.35 L13.2 -19.9 20.6 -17.7 20.15 -17.75 Q17.65 -17.75 15.9 -16.0 14.15 -14.25 14.15 -11.75 14.15 -9.25 15.9 -7.5 17.65 -5.75 20.15 -5.75 22.2 -5.75 23.7 -6.9 22.8 -4.65 20.95 -2.8 19.95 -1.8 18.85 -1.05" fill="#99ccff" fill-rule="evenodd" stroke="none"/>
    <path d="M18.85 -1.05 Q19.95 -1.8 20.95 -2.8 22.8 -4.65 23.7 -6.9 22.2 -5.75 20.15 -5.75 17.65 -5.75 15.9 -7.5 14.15 -9.25 14.15 -11.75 14.15 -14.25 15.9 -16.0 17.65 -17.75 20.15 -17.75 L20.6 -17.7 13.2 -19.9 6.75 -21.8 Q5.3 -21.0 4.0 -19.75 0.5 -16.2 0.5 -11.25 0.5 -6.3 4.0 -2.8 7.55 0.75 12.5 0.75 16.05 0.75 18.85 -1.05 M23.1 -17.0 L20.6 -17.7 Q21.95 -17.65 23.05 -17.05 L23.1 -17.0 Q24.5 -14.4 24.5 -11.25 24.5 -8.9 23.7 -6.9" fill="none" stroke="#000000" stroke-linecap="round" stroke-linejoin="round" stroke-width="2.0"/>
  </g>
</svg>
