<?xml version="1.0" encoding="UTF-8" standalone="no"?>
<svg xmlns:xlink="http://www.w3.org/1999/xlink" height="25.5px" width="26.0px" xmlns="http://www.w3.org/2000/svg">
  <g transform="matrix(1.0, 0.0, 0.0, 1.0, 0.5, 24.25)">
    <path d="M17.5 -22.2 Q14.7 -21.5 12.55 -19.35 9.4 -16.2 9.4 -11.75 9.4 -7.3 12.55 -4.15 13.8 -2.9 15.2 -2.15 L8.05 -0.05 Q5.85 -0.95 4.0 -2.8 0.5 -6.3 0.5 -11.25 0.5 -16.2 4.0 -19.75 7.55 -23.25 12.5 -23.25 15.2 -23.25 17.5 -22.2" fill="#ffffff" fill-rule="evenodd" stroke="none"/>
    <path d="M23.7 -6.9 Q22.2 -5.75 20.15 -5.75 17.65 -5.75 15.9 -7.5 14.15 -9.25 14.15 -11.75 14.15 -14.25 15.9 -16.0 17.65 -17.75 20.15 -17.75 21.75 -17.75 23.05 -17.05 24.5 -14.45 24.5 -11.25 24.5 -8.9 23.7 -6.9" fill="#000000" fill-rule="evenodd" stroke="none"/>
    <path d="M23.05 -17.05 Q21.75 -17.75 20.15 -17.75 17.65 -17.75 15.9 -16.0 14.15 -14.25 14.15 -11.75 14.15 -9.25 15.9 -7.5 17.65 -5.75 20.15 -5.75 22.2 -5.75 23.7 -6.9 23.15 -5.5 22.2 -4.2 L15.2 -2.15 Q13.8 -2.9 12.55 -4.15 9.4 -7.3 9.4 -11.75 9.4 -16.2 12.55 -19.35 14.7 -21.5 17.5 -22.2 19.35 -21.35 20.95 -19.75 L23.05 -17.05" fill="#cc9933" fill-rule="evenodd" stroke="none"/>
    <path d="M23.05 -17.05 Q21.75 -17.75 20.15 -17.75 17.65 -17.75 15.9 -16.0 14.15 -14.25 14.15 -11.75 14.15 -9.25 15.9 -7.5 17.65 -5.75 20.15 -5.75 22.2 -5.75 23.7 -6.9 24.5 -8.9 24.5 -11.25 24.5 -14.45 23.05 -17.05 L20.95 -19.75 Q19.35 -21.35 17.5 -22.2 15.2 -23.25 12.5 -23.25 7.55 -23.25 4.0 -19.75 0.5 -16.2 0.5 -11.25 0.5 -6.3 4.0 -2.8 5.85 -0.95 8.05 -0.05 L6.95 0.25 M15.2 -2.15 L22.2 -4.2 Q23.15 -5.5 23.7 -6.9 M15.2 -2.15 L8.05 -0.05 M22.2 -4.2 L23.3 -4.55" fill="none" stroke="#000000" stroke-linecap="round" stroke-linejoin="round" stroke-width="2.0"/>
  </g>
</svg>
