<?xml version="1.0" encoding="UTF-8" standalone="no"?>
<svg xmlns:xlink="http://www.w3.org/1999/xlink" height="139.8px" width="101.95px" xmlns="http://www.w3.org/2000/svg">
  <g transform="matrix(1.0, 0.0, 0.0, 1.0, 50.9, 69.65)">
    <path d="M-12.05 55.0 L-12.2 67.65 12.35 67.65" fill="none" stroke="#000000" stroke-linecap="butt" stroke-linejoin="round" stroke-width="5.0"/>
    <path d="M36.85 -29.85 L36.85 -30.75 Q36.85 -34.05 36.35 -37.15 L49.05 -29.85 36.85 -29.85 49.05 -29.85 36.35 -24.15 Q36.8 -26.9 36.85 -29.85" fill="#ffcc00" fill-rule="evenodd" stroke="none"/>
    <path d="M36.85 -29.85 L49.05 -29.85" fill="none" stroke="#c29b00" stroke-linecap="round" stroke-linejoin="round" stroke-width="2.0"/>
    <path d="M36.85 -30.75 L36.85 -29.85 Q36.8 -26.9 36.35 -24.15 L49.05 -29.85 36.35 -37.15 Q36.85 -34.05 36.85 -30.75 Z" fill="none" stroke="#000000" stroke-linecap="round" stroke-linejoin="round" stroke-width="4.0"/>
    <path d="M27.05 -4.15 Q28.95 -5.85 27.8 -7.05 26.65 -8.2 30.4 -9.6 36.4 0.2 36.4 12.45 36.4 30.15 23.9 42.65 11.45 55.1 -6.25 55.1 -23.95 55.1 -36.4 42.65 L-38.95 39.9 -37.0 41.05 -36.95 41.1 Q-36.35 41.3 -34.3 42.85 -31.5 45.0 -29.55 45.05 L-27.15 45.3 -27.2 45.3 -24.2 45.75 -24.15 45.75 -21.0 46.4 -18.05 46.9 -18.0 46.9 -14.9 46.4 -14.95 46.4 -13.2 46.1 -9.3 45.9 -6.1 45.55 Q-5.25 45.5 -3.1 44.65 -1.45 43.95 -0.2 43.7 1.4 43.35 3.45 41.75 L5.55 40.4 Q7.0 40.05 8.0 38.75 L8.05 38.75 10.3 36.75 10.25 36.75 Q11.35 35.9 11.95 35.85 13.9 36.45 15.6 33.45 L17.15 30.5 Q17.5 29.95 18.95 29.05 21.5 27.45 22.05 25.7 L23.45 22.65 23.4 22.65 Q24.75 19.85 23.7 18.9 L24.7 18.05 24.75 18.0 Q26.9 15.0 26.65 13.4 26.65 12.5 26.95 11.75 27.55 10.4 27.55 8.2 L27.55 8.15 Q27.6 6.0 27.15 4.65 L27.1 4.65 Q27.0 4.4 27.15 4.2 28.5 2.95 27.95 0.1 L27.95 0.05 27.1 -4.1 27.05 -4.15" fill="#000000" fill-opacity="0.08627451" fill-rule="evenodd" stroke="none"/>
    <path d="M36.85 -29.85 Q36.8 -26.9 36.35 -24.15 35.0 -16.2 30.35 -9.65 36.4 0.15 36.4 12.45 36.4 30.15 23.9 42.65 11.45 55.1 -6.25 55.1 -23.95 55.1 -36.4 42.65 -48.9 30.15 -48.9 12.45 -48.9 -5.2 -36.4 -17.7 L-35.1 -18.9 Q-36.95 -24.45 -36.95 -30.75 -36.95 -46.05 -26.15 -56.85 -15.35 -67.65 -0.05 -67.65 15.25 -67.65 26.05 -56.85 34.5 -48.4 36.35 -37.15 36.85 -34.05 36.85 -30.75 L36.85 -29.85 Z" fill="none" stroke="#000000" stroke-linecap="round" stroke-linejoin="round" stroke-width="4.0"/>
    <path d="M30.2 -9.45 Q36.25 0.35 36.25 12.65 36.25 30.35 23.75 42.85 11.3 55.3 -6.4 55.3 -24.1 55.3 -36.55 42.85 -49.05 30.35 -49.05 12.65 -49.05 -5.0 -36.55 -17.5 L-35.25 -18.7 Q-37.1 -24.25 -37.1 -30.55 -37.1 -45.85 -26.3 -56.65 -15.5 -67.45 -0.2 -67.45 15.1 -67.45 25.9 -56.65 34.35 -48.2 36.2 -36.95 36.7 -33.85 36.7 -30.55 L36.7 -29.65 Q36.65 -26.7 36.2 -23.95 34.85 -16.0 30.2 -9.45" fill="url(#gradient0)" fill-rule="evenodd" stroke="none"/>
  </g>
  <defs>
    <linearGradient gradientTransform="matrix(0.0, 0.0748, -0.0749, 0.0, -6.15, -6.05)" gradientUnits="userSpaceOnUse" id="gradient0" spreadMethod="pad" x1="-819.2" x2="819.2">
      <stop offset="0.0" stop-color="#000000" stop-opacity="0.0"/>
      <stop offset="1.0" stop-color="#000000" stop-opacity="0.09411765"/>
      <stop offset="1.0" stop-color="#a2cb00"/>
      <stop offset="1.0" stop-color="#779500"/>
    </linearGradient>
  </defs>
</svg>
