<?xml version="1.0" encoding="UTF-8" standalone="no"?>
<svg xmlns:xlink="http://www.w3.org/1999/xlink" height="31.8px" width="40.15px" xmlns="http://www.w3.org/2000/svg">
  <g transform="matrix(1.0, 0.0, 0.0, 1.0, 38.1, 43.15)">
    <path d="M1.55 -37.05 Q1.6 -36.45 1.2 -35.95 0.8 -35.5 -9.8 -32.75 -20.45 -30.05 -26.95 -21.1 -33.4 -12.15 -34.0 -11.95 L-35.1 -12.0 Q-35.7 -12.25 -35.9 -12.85 L-35.85 -14.0 -33.35 -18.7 Q-31.55 -30.25 -36.1 -41.15 L-5.95 -37.65 -0.05 -38.45 1.05 -38.1 Q1.5 -37.7 1.55 -37.05" fill="#2599e6" fill-rule="evenodd" stroke="none"/>
    <path d="M0.05 -36.95 L-36.1 -41.15 -35.55 -39.8 -35.1 -38.55 -34.95 -38.1 Q-33.9 -34.9 -33.35 -31.6 L-33.2 -30.45 -33.15 -30.15 -33.1 -29.95 -33.1 -29.75 -33.05 -29.55 -33.35 -18.7 Q-33.75 -16.05 -34.5 -13.35" fill="none" stroke="#000000" stroke-linecap="round" stroke-linejoin="round" stroke-width="4.0"/>
  </g>
</svg>
