<?xml version="1.0" encoding="UTF-8" standalone="no"?>
<svg xmlns:xlink="http://www.w3.org/1999/xlink" height="245.0px" width="245.0px" xmlns="http://www.w3.org/2000/svg">
  <g transform="matrix(1.0, 0.0, 0.0, 1.0, 122.2, 122.5)">
    <path d="M32.25 -28.85 Q21.7 -46.8 2.3 -46.8 -17.1 -46.8 -30.8 -33.1 -44.5 -19.4 -44.5 0.0 -44.5 19.4 -30.8 33.05 -17.15 46.65 1.45 45.6 20.0 44.5 31.1 32.95 42.2 21.35 42.5 5.25 42.75 -10.9 32.25 -28.85 M103.35 -66.85 Q122.8 -37.5 122.8 0.0 122.8 35.15 105.65 63.15 L99.6 72.1 Q94.0 79.65 87.0 86.65 L81.2 92.15 Q47.1 122.5 0.3 122.5 -45.15 122.5 -78.55 93.85 -82.55 90.45 -86.35 86.65 -97.5 75.5 -105.15 62.9 -122.2 35.0 -122.2 0.0 -122.2 -50.85 -86.35 -86.7 -50.55 -122.5 0.3 -122.5 51.15 -122.5 87.0 -86.7 96.4 -77.3 103.35 -66.85" fill="#000000" fill-rule="evenodd" stroke="none"/>
  </g>
</svg>
