<?xml version="1.0" encoding="UTF-8" standalone="no"?>
<svg xmlns:xlink="http://www.w3.org/1999/xlink" height="24.5px" width="49.0px" xmlns="http://www.w3.org/2000/svg">
  <g transform="matrix(1.0, 0.0, 0.0, 1.0, 30.3, 54.35)">
    <path d="M17.6 -32.15 Q17.1 -31.8 4.45 -32.4 -8.25 -33.05 -13.45 -31.3 -18.7 -29.6 -19.25 -30.1 L-20.15 -31.15 -20.3 -31.85 -28.3 -31.85 -20.3 -35.85 -27.3 -42.35 -15.55 -41.6 -23.3 -52.35 12.4 -35.4 16.9 -34.8 Q17.5 -34.75 17.9 -34.25 18.25 -33.75 18.2 -33.15 18.1 -32.55 17.6 -32.15" fill="#fbfbc8" fill-rule="evenodd" stroke="none"/>
    <path d="M-18.8 -31.85 L-28.3 -31.85 -20.3 -35.85 -27.3 -42.35 -15.55 -41.6 -23.3 -52.35 Q-6.45 -41.95 12.4 -35.4 L16.7 -33.35" fill="none" stroke="#000000" stroke-linecap="round" stroke-linejoin="round" stroke-width="4.0"/>
  </g>
</svg>
