<?xml version="1.0" encoding="UTF-8" standalone="no"?>
<svg xmlns:xlink="http://www.w3.org/1999/xlink" height="122.75px" width="85.75px" xmlns="http://www.w3.org/2000/svg">
  <g transform="matrix(1.0, 0.0, 0.0, 1.0, 42.9, 61.4)">
    <path d="M32.05 -50.6 Q40.5 -42.15 42.35 -30.9 42.85 -27.8 42.85 -24.5 L42.85 -23.6 Q42.8 -20.65 42.35 -17.9 41.0 -9.95 36.35 -3.4 42.4 6.4 42.4 18.7 42.4 36.4 29.9 48.9 17.45 61.35 -0.25 61.35 -17.95 61.35 -30.4 48.9 -42.9 36.4 -42.9 18.7 -42.9 1.05 -30.4 -11.45 L-29.1 -12.65 Q-30.95 -18.2 -30.95 -24.5 -30.95 -39.8 -20.15 -50.6 -9.35 -61.4 5.95 -61.4 21.25 -61.4 32.05 -50.6" fill="#ffff00" fill-rule="evenodd" stroke="none"/>
  </g>
</svg>
