<?xml version="1.0" encoding="UTF-8" standalone="no"?>
<svg xmlns:xlink="http://www.w3.org/1999/xlink" height="27.5px" width="53.0px" xmlns="http://www.w3.org/2000/svg">
  <g transform="matrix(1.0, 0.0, 0.0, 1.0, 14.05, 45.35)">
    <path d="M28.35 -25.9 L32.25 -20.65 32.4 -19.5 Q32.25 -18.9 31.75 -18.55 31.2 -18.25 30.55 -18.3 29.9 -18.35 22.4 -26.1 14.9 -33.95 1.25 -33.7 -12.4 -33.5 -12.9 -33.85 -13.45 -34.25 -13.5 -34.85 -13.65 -35.45 -13.25 -35.95 L-12.3 -36.55 -4.8 -37.45 Q14.95 -43.3 36.95 -43.35 25.6 -36.4 28.35 -25.9 29.1 -23.0 30.95 -19.85 29.1 -23.0 28.35 -25.9 M-12.05 -35.1 L-4.8 -37.45 -12.05 -35.1" fill="#ffa216" fill-rule="evenodd" stroke="none"/>
    <path d="M-4.8 -37.45 Q14.95 -43.3 36.95 -43.35 25.6 -36.4 28.35 -25.9 29.1 -23.0 30.95 -19.85 M-4.8 -37.45 L-12.05 -35.1" fill="none" stroke="#000000" stroke-linecap="round" stroke-linejoin="round" stroke-width="3.0"/>
    <path d="M-12.05 -35.1 L-4.8 -37.45 Q14.95 -43.3 36.95 -43.35 25.6 -36.4 28.35 -25.9 29.1 -23.0 30.95 -19.85" fill="none" stroke="#000000" stroke-linecap="round" stroke-linejoin="round" stroke-width="4.0"/>
  </g>
</svg>
