<?xml version="1.0" encoding="UTF-8" standalone="no"?>
<svg xmlns:xlink="http://www.w3.org/1999/xlink" height="15.5px" width="27.0px" xmlns="http://www.w3.org/2000/svg">
  <g transform="matrix(1.0, 0.0, 0.0, 1.0, 13.55, 48.6)">
    <path d="M-7.6 -36.8 Q-2.15 -39.65 0.7 -46.6 1.9 -39.7 7.5 -36.65 L11.5 -36.6 Q12.1 -36.6 12.55 -36.15 12.95 -35.7 12.95 -35.05 12.95 -34.45 12.5 -34.0 12.05 -33.6 11.45 -33.6 L-11.55 -33.85 Q-12.2 -33.85 -12.6 -34.3 -13.05 -34.75 -13.05 -35.35 L-12.6 -36.4 Q-12.15 -36.85 -11.5 -36.85 L-7.6 -36.8 Q-9.45 -35.85 -11.55 -35.35 -9.45 -35.85 -7.6 -36.8 M11.45 -35.1 Q9.25 -35.7 7.5 -36.65 9.25 -35.7 11.45 -35.1" fill="#ffa216" fill-rule="evenodd" stroke="none"/>
    <path d="M7.5 -36.65 Q1.9 -39.7 0.7 -46.6 -2.15 -39.65 -7.6 -36.8 -9.45 -35.85 -11.55 -35.35 M7.5 -36.65 Q9.25 -35.7 11.45 -35.1" fill="none" stroke="#000000" stroke-linecap="round" stroke-linejoin="round" stroke-width="3.0"/>
    <path d="M11.45 -35.1 Q9.25 -35.7 7.5 -36.65 1.9 -39.7 0.7 -46.6 -2.15 -39.65 -7.6 -36.8 -9.45 -35.85 -11.55 -35.35" fill="none" stroke="#000000" stroke-linecap="round" stroke-linejoin="round" stroke-width="4.0"/>
  </g>
</svg>
