<?xml version="1.0" encoding="UTF-8" standalone="no"?>
<svg xmlns:xlink="http://www.w3.org/1999/xlink" height="65.5px" width="86.2px" xmlns="http://www.w3.org/2000/svg">
  <g transform="matrix(1.0, 0.0, 0.0, 1.0, 43.05, 32.7)">
    <path d="M-40.0 10.25 L-40.0 -24.55 -32.45 -30.0 35.4 -30.0 Q39.9 -29.85 40.05 -25.3 38.75 11.7 24.0 17.75 L-27.25 17.75 Q-36.35 16.7 -40.0 10.25" fill="#998357" fill-rule="evenodd" stroke="none"/>
    <path d="M-40.0 10.25 Q-36.35 16.7 -27.25 17.75 L24.0 17.75 Q38.75 11.7 40.05 -25.3 L40.05 25.35 Q39.9 29.85 35.4 30.0 L-33.05 30.0 -40.0 22.75 -40.0 10.25" fill="#806e49" fill-rule="evenodd" stroke="none"/>
    <path d="M22.35 29.7 L22.5 30.0 M20.75 -5.25 Q22.05 -5.15 22.6 -4.6 23.15 -4.05 24.2 -3.85 L26.35 -3.05 Q27.5 -2.45 28.4 -2.45 L30.15 -2.15 31.85 -2.1 33.75 -2.45 35.95 -2.55 37.65 -2.55 40.05 -2.25 M22.35 29.7 L21.55 28.35 20.65 26.5 19.8 24.6 19.15 23.4 18.0 21.25 M-23.5 -7.75 L-25.5 -8.85 -26.9 -9.85 -28.7 -10.5 -30.85 -10.75 -32.75 -10.8 -34.85 -10.8 -37.0 -10.7 -38.6 -10.5 -40.1 -10.75 M-14.0 12.0 L-16.15 12.75 -18.15 13.05 -20.05 13.35 -21.9 13.8 -23.65 14.2 -25.95 14.35 -28.15 14.6 -29.8 15.0 -31.7 15.0 -33.65 14.75 -35.25 14.9 -36.75 15.0" fill="none" stroke="#000000" stroke-linecap="round" stroke-linejoin="round" stroke-width="1.0"/>
    <path d="M22.35 29.7 L14.35 30.15 6.2 29.5 Q1.8 29.1 -2.55 29.4 L-10.05 29.9 -17.85 29.6 Q-22.5 29.15 -26.55 30.35 -30.6 31.55 -33.85 29.65 -37.05 27.8 -38.75 25.35 -40.4 22.95 -40.15 18.3 -39.9 13.65 -40.6 9.1 -41.3 4.6 -40.5 0.8 -39.7 -3.0 -39.9 -7.45 L-40.1 -10.75 Q-40.35 -13.15 -40.85 -15.15 -41.65 -18.4 -39.55 -23.05 -37.45 -27.7 -35.45 -29.2 -33.45 -30.65 -29.05 -30.35 -24.6 -30.05 -21.95 -30.5 -19.25 -30.9 -14.5 -30.55 L-5.75 -30.1 3.1 -29.75 Q7.95 -29.45 11.9 -29.55 L18.9 -30.15 Q22.0 -30.6 26.15 -30.0 L33.9 -29.0 Q37.5 -28.65 38.3 -27.2 39.15 -25.75 40.05 -25.3 L40.1 -16.85 39.85 -9.25 Q39.7 -5.25 40.6 -1.3 41.55 2.7 40.8 6.55 L39.25 14.15 Q38.45 17.9 38.35 21.15 38.3 24.45 36.1 27.25 33.95 30.05 30.6 29.5 27.3 28.95 22.7 29.65 L22.35 29.7 Z" fill="none" stroke="#000000" stroke-linecap="round" stroke-linejoin="round" stroke-width="4.0"/>
  </g>
</svg>
