<?xml version="1.0" encoding="UTF-8" standalone="no"?>
<svg xmlns:xlink="http://www.w3.org/1999/xlink" height="46.75px" width="77.35px" xmlns="http://www.w3.org/2000/svg">
  <g transform="matrix(1.0, 0.0, 0.0, 1.0, 38.1, 49.2)">
    <path d="M24.8 -28.2 L23.4 -28.7 24.8 -28.2 24.75 -28.05 Q24.5 -27.5 23.95 -27.3 L22.8 -27.35 Q2.3 -36.85 -12.3 -31.1 -26.9 -25.2 -35.65 -3.9 -35.9 -3.35 -36.45 -3.1 -37.0 -2.9 -37.55 -3.1 L-37.55 -7.1 -35.25 -11.9 Q-29.75 -32.3 -20.8 -39.15 L-21.5 -34.55 Q-8.85 -46.9 7.15 -47.7 L0.8 -42.7 Q13.75 -43.3 25.45 -37.8 L11.7 -37.8 Q28.0 -33.5 37.75 -23.8 L24.8 -28.2 M-36.6 -3.95 Q-36.2 -8.4 -35.25 -11.9 -36.2 -8.4 -36.6 -3.95" fill="#c99764" fill-rule="evenodd" stroke="none"/>
    <path d="M23.4 -28.7 L24.8 -28.2 37.75 -23.8 Q28.0 -33.5 11.7 -37.8 L25.45 -37.8 Q13.75 -43.3 0.8 -42.7 L7.15 -47.7 Q-8.85 -46.9 -21.5 -34.55 L-20.8 -39.15 Q-29.75 -32.3 -35.25 -11.9 -36.2 -8.4 -36.6 -3.95" fill="none" stroke="#000000" stroke-linecap="round" stroke-linejoin="round" stroke-width="3.0"/>
  </g>
</svg>
