<?xml version="1.0" encoding="UTF-8" standalone="no"?>
<svg xmlns:xlink="http://www.w3.org/1999/xlink" height="53.45px" width="85.3px" xmlns="http://www.w3.org/2000/svg">
  <g transform="matrix(1.0, 0.0, 0.0, 1.0, 44.0, 48.25)">
    <path d="M26.2 -26.85 L27.15 -26.15 25.6 -26.15 26.2 -26.85" fill="#ffff00" fill-rule="evenodd" stroke="none"/>
    <path d="M27.15 -26.15 L39.8 -26.15 32.75 -21.25 33.0 -20.4 Q33.0 -19.8 32.6 -19.35 L31.15 -18.35 Q30.1 -17.85 22.2 -26.05 14.25 -34.25 -1.65 -32.85 -17.55 -31.5 -25.3 -21.6 L-25.3 -21.55 Q-33.0 -11.15 -33.35 3.7 L-36.8 3.7 -42.05 -2.55 -36.15 -4.4 -42.5 -11.5 -34.65 -11.95 -41.45 -21.4 -30.7 -20.1 -37.05 -31.3 -24.6 -27.45 -28.0 -38.9 -17.4 -32.8 -17.1 -44.15 -9.7 -35.2 -5.55 -46.75 -0.25 -36.5 5.95 -45.8 9.95 -35.7 20.3 -42.0 19.25 -31.3 31.45 -36.05 26.3 -27.0 26.2 -26.85 25.6 -26.15 27.15 -26.15 M30.85 -19.95 L32.75 -21.25 30.85 -19.95" fill="#323232" fill-rule="evenodd" stroke="none"/>
    <path d="M27.15 -26.15 L39.8 -26.15 32.75 -21.25 30.85 -19.95 M-36.8 3.7 L-42.05 -2.55 -36.15 -4.4 -42.5 -11.5 -34.65 -11.95 -41.45 -21.4 -30.7 -20.1 -37.05 -31.3 -24.6 -27.45 -28.0 -38.9 -17.4 -32.8 -17.1 -44.15 -9.7 -35.2 -5.55 -46.75 -0.25 -36.5 5.95 -45.8 9.95 -35.7 20.3 -42.0 19.25 -31.3 31.45 -36.05 26.3 -27.0 M27.15 -26.15 L25.6 -26.15 26.2 -26.85" fill="none" stroke="#000000" stroke-linecap="round" stroke-linejoin="round" stroke-width="3.0"/>
  </g>
</svg>
