<?xml version="1.0" encoding="UTF-8" standalone="no"?>
<svg xmlns:xlink="http://www.w3.org/1999/xlink" height="37.45px" width="38.25px" xmlns="http://www.w3.org/2000/svg">
  <g transform="matrix(1.0, 0.0, 0.0, 1.0, -5.45, 57.2)">
    <path d="M30.05 -21.75 Q28.7 -23.65 28.6 -25.5 28.5 -26.3 28.65 -27.1 29.05 -29.15 31.7 -29.7 35.05 -30.45 37.95 -33.45 42.8 -39.1 41.35 -45.55 37.4 -55.5 28.35 -55.2 20.5 -53.75 19.2 -47.45 18.4 -43.75 21.5 -41.55 25.7 -39.6 29.9 -42.0 26.1 -42.7 25.2 -44.95 24.6 -48.0 27.5 -49.05 29.8 -49.95 32.4 -48.75 35.0 -47.6 35.45 -43.9 35.3 -40.3 32.4 -38.6 24.5 -34.65 14.3 -35.25 L7.45 -36.15" fill="none" stroke="#000000" stroke-linecap="round" stroke-linejoin="round" stroke-width="4.0"/>
  </g>
</svg>
