<?xml version="1.0" encoding="UTF-8" standalone="no"?>
<svg xmlns:xlink="http://www.w3.org/1999/xlink" height="36.5px" width="37.25px" xmlns="http://www.w3.org/2000/svg">
  <g transform="matrix(1.0, 0.0, 0.0, 1.0, -5.95, 56.7)">
    <path d="M14.3 -35.25 Q24.5 -34.65 32.4 -38.6 35.3 -40.3 35.45 -43.9 35.0 -47.6 32.4 -48.75 29.8 -49.95 27.5 -49.05 24.6 -48.0 25.2 -44.95 26.1 -42.7 29.9 -42.0 25.7 -39.6 21.5 -41.55 18.4 -43.75 19.2 -47.45 20.5 -53.75 28.35 -55.2 37.4 -55.5 41.35 -45.55 42.8 -39.1 37.95 -33.45 35.05 -30.45 31.7 -29.7 29.05 -29.15 28.65 -27.1 28.5 -26.3 28.6 -25.5 L31.2 -22.7 31.55 -21.65 Q31.5 -21.05 31.05 -20.6 30.55 -20.2 29.9 -20.2 29.2 -20.2 24.1 -25.0 18.95 -29.8 12.7 -32.35 6.45 -34.9 6.15 -35.4 5.85 -35.95 6.0 -36.55 6.2 -37.15 6.75 -37.45 L7.85 -37.6 Q11.2 -36.65 14.3 -35.25 L7.45 -36.15 14.3 -35.25 M30.05 -21.75 Q28.7 -23.65 28.6 -25.5 28.7 -23.65 30.05 -21.75" fill="#323232" fill-rule="evenodd" stroke="none"/>
    <path d="M28.6 -25.5 Q28.5 -26.3 28.65 -27.1 29.05 -29.15 31.7 -29.7 35.05 -30.45 37.95 -33.45 42.8 -39.1 41.35 -45.55 37.4 -55.5 28.35 -55.2 20.5 -53.75 19.2 -47.45 18.4 -43.75 21.5 -41.55 25.7 -39.6 29.9 -42.0 26.1 -42.7 25.2 -44.95 24.6 -48.0 27.5 -49.05 29.8 -49.95 32.4 -48.75 35.0 -47.6 35.45 -43.9 35.3 -40.3 32.4 -38.6 24.5 -34.65 14.3 -35.25 L7.45 -36.15 M28.6 -25.5 Q28.7 -23.65 30.05 -21.75" fill="none" stroke="#000000" stroke-linecap="round" stroke-linejoin="round" stroke-width="3.0"/>
  </g>
</svg>
