<?xml version="1.0" encoding="UTF-8" standalone="no"?>
<svg xmlns:xlink="http://www.w3.org/1999/xlink" height="62.55px" width="43.7px" xmlns="http://www.w3.org/2000/svg">
  <g transform="matrix(1.0, 0.0, 0.0, 1.0, 24.9, 31.75)">
    <path d="M18.55 -16.2 L18.8 -12.95 18.8 -12.5 18.55 -9.55 Q17.85 -5.5 15.5 -2.2 18.55 2.8 18.55 9.1 18.55 18.1 12.2 24.45 5.85 30.8 -3.2 30.8 -12.2 30.8 -18.55 24.45 -24.9 18.1 -24.9 9.1 -24.9 0.1 -18.55 -6.3 L-17.9 -6.9 Q-18.8 -9.7 -18.8 -12.95 -18.8 -20.75 -13.3 -26.25 -7.8 -31.75 0.0 -31.75 7.8 -31.75 13.3 -26.25 17.6 -21.95 18.55 -16.2" fill="#ffa216" fill-rule="evenodd" stroke="none"/>
  </g>
</svg>
