<?xml version="1.0" encoding="UTF-8" standalone="no"?>
<svg xmlns:xlink="http://www.w3.org/1999/xlink" height="29.5px" width="49.7px" xmlns="http://www.w3.org/2000/svg">
  <g transform="matrix(1.0, 0.0, 0.0, 1.0, 19.65, 52.0)">
    <path d="M28.55 -25.7 L29.25 -25.2 Q29.75 -24.9 29.9 -24.25 30.0 -23.65 29.65 -23.15 29.3 -22.65 28.7 -22.5 28.05 -22.4 27.55 -22.75 19.0 -27.15 11.6 -33.8 11.1 -34.15 11.0 -34.75 10.85 -35.4 11.25 -35.9 11.55 -36.4 12.2 -36.5 12.8 -36.65 13.3 -36.25 L14.85 -35.2 Q15.65 -35.5 16.15 -36.2 16.5 -38.05 13.8 -39.15 -1.95 -46.9 -18.15 -39.2 -4.85 -55.5 13.4 -48.25 21.8 -44.35 26.1 -37.3 28.8 -32.15 28.55 -25.7 L28.4 -24.0 28.55 -25.7 M12.45 -35.05 L14.85 -35.2 12.45 -35.05" fill="#fb64fb" fill-rule="evenodd" stroke="none"/>
    <path d="M28.55 -25.7 L28.4 -24.0 M28.55 -25.7 Q28.8 -32.15 26.1 -37.3 21.8 -44.35 13.4 -48.25 -4.85 -55.5 -18.15 -39.2 -1.95 -46.9 13.8 -39.15 16.5 -38.05 16.15 -36.2 15.65 -35.5 14.85 -35.2 L12.45 -35.05" fill="none" stroke="#000000" stroke-linecap="round" stroke-linejoin="round" stroke-width="3.0"/>
  </g>
</svg>
