<?xml version="1.0" encoding="UTF-8" standalone="no"?>
<svg xmlns:xlink="http://www.w3.org/1999/xlink" height="34.2px" width="27.9px" xmlns="http://www.w3.org/2000/svg">
  <g transform="matrix(1.0, 0.0, 0.0, 1.0, -9.6, 46.45)">
    <path d="M15.0 -34.9 Q26.7 -34.4 35.95 -44.95 36.3 -35.1 32.9 -28.75 30.7 -24.75 31.95 -19.75 L35.75 -14.6 Q36.1 -14.1 36.0 -13.45 35.85 -12.85 35.35 -12.5 34.85 -12.15 34.25 -12.25 33.6 -12.4 28.4 -19.45 23.2 -26.5 16.45 -30.2 9.65 -33.9 9.6 -34.7 9.55 -35.5 9.85 -36.05 10.1 -36.6 10.7 -36.75 L11.85 -36.65 15.0 -34.9 11.15 -35.35 15.0 -34.9 M34.5 -13.75 Q32.65 -16.9 31.95 -19.75 32.65 -16.9 34.5 -13.75" fill="#99c022" fill-rule="evenodd" stroke="none"/>
    <path d="M15.0 -34.9 Q26.7 -34.4 35.95 -44.95 36.3 -35.1 32.9 -28.75 30.7 -24.75 31.95 -19.75 32.65 -16.9 34.5 -13.75 M15.0 -34.9 L11.15 -35.35" fill="none" stroke="#000000" stroke-linecap="round" stroke-linejoin="round" stroke-width="3.0"/>
  </g>
</svg>
