<?xml version="1.0" encoding="UTF-8" standalone="no"?>
<svg xmlns:xlink="http://www.w3.org/1999/xlink" height="59.6px" width="74.45px" xmlns="http://www.w3.org/2000/svg">
  <g transform="matrix(1.0, 0.0, 0.0, 1.0, 47.25, 52.65)">
    <path d="M-1.7 -50.25 Q10.85 -48.8 20.25 -39.35 23.05 -36.6 25.2 -33.45 L18.55 -29.6 18.45 -29.8 18.2 -30.25 Q17.5 -31.0 16.9 -32.05 L15.8 -33.55 13.15 -37.35 12.1 -39.4 10.85 -41.1 10.55 -41.5 Q9.7 -42.15 9.25 -42.95 7.8 -45.05 5.5 -45.85 L3.45 -46.8 Q2.45 -47.2 1.5 -47.75 L-0.15 -48.4 Q-0.7 -48.55 -1.15 -48.8 L-1.95 -49.15 -1.7 -50.25 M9.7 -24.5 L0.15 -18.95 Q-0.05 -20.2 0.1 -21.6 L-0.05 -23.0 -0.15 -25.65 -0.3 -26.1 Q-0.8 -27.25 -0.75 -28.55 L-0.7 -29.05 -1.35 -30.7 -2.05 -35.5 -2.15 -36.75 -2.15 -37.2 -2.4 -39.15 -2.5 -39.85 Q-2.65 -41.1 -3.2 -42.0 -3.2 -42.85 -3.6 -43.5 L-5.5 -47.5 -5.95 -48.25 -6.2 -48.65 -4.05 -47.7 -3.6 -47.3 -2.4 -46.5 -2.15 -46.4 Q-1.55 -46.3 -1.1 -45.85 L-0.7 -45.8 0.1 -45.4 Q1.95 -44.6 2.75 -42.7 L3.3 -42.05 3.5 -41.85 3.65 -41.55 Q5.4 -40.3 6.0 -37.95 L6.6 -35.55 6.65 -35.3 Q6.95 -34.05 7.4 -33.3 L7.8 -33.1 Q8.9 -32.75 8.85 -31.45 L9.3 -28.4 9.3 -28.2 9.55 -25.7 9.6 -25.3 9.7 -24.5 M-7.4 -14.65 L-15.75 -9.8 -15.75 -11.8 -15.9 -17.05 -15.95 -17.55 -16.25 -24.7 -16.1 -26.85 -15.55 -31.7 -15.3 -34.3 -15.15 -36.2 -14.95 -38.4 -14.7 -39.85 -14.35 -41.55 -13.95 -42.4 Q-13.7 -42.7 -13.75 -43.2 L-13.8 -43.65 Q-13.55 -44.05 -13.4 -44.9 -12.8 -47.15 -11.2 -48.75 L-11.0 -48.9 Q-10.75 -49.95 -9.8 -49.85 L-9.75 -50.45 -8.4 -50.55 -8.35 -50.55 -7.55 -50.65 -7.6 -50.15 -6.7 -49.1 -8.35 -49.9 -8.25 -46.0 -8.1 -44.15 Q-8.1 -41.6 -8.25 -39.1 L-8.3 -38.35 Q-8.85 -35.7 -8.8 -32.9 L-8.55 -30.5 Q-8.25 -28.15 -8.25 -25.65 L-7.85 -23.0 Q-7.2 -20.95 -7.25 -18.55 L-7.4 -14.65 M-26.5 -3.6 L-35.95 1.85 -36.0 1.2 -36.05 -2.25 -35.75 -3.5 -35.55 -4.15 Q-34.95 -6.35 -35.1 -8.95 -35.25 -10.35 -35.55 -11.55 -35.95 -13.15 -35.9 -14.95 -35.85 -16.2 -35.2 -17.25 L-33.6 -19.85 -33.4 -20.4 -33.05 -22.6 -33.1 -23.05 -32.95 -25.0 -32.6 -27.2 -31.0 -31.75 -30.8 -32.45 Q-30.55 -34.85 -29.75 -37.2 -29.2 -39.3 -28.0 -41.3 -26.75 -43.45 -24.55 -45.3 L-24.15 -45.7 -20.95 -47.7 -20.55 -47.8 -19.6 -47.95 -18.65 -48.35 Q-18.2 -48.45 -17.8 -49.05 L-15.2 -49.8 -15.7 -49.4 -16.1 -49.0 -17.25 -47.85 -17.55 -47.2 -18.2 -45.05 -18.5 -44.55 Q-19.7 -43.5 -20.15 -42.3 L-20.8 -40.8 -21.35 -39.35 -23.0 -34.15 Q-23.8 -32.05 -24.15 -29.75 L-24.35 -29.05 Q-24.55 -26.0 -25.7 -23.35 L-25.7 -23.05 -25.9 -21.6 -25.95 -20.9 -26.1 -19.2 -26.2 -18.55 -26.25 -13.45 Q-26.1 -8.5 -26.5 -3.6 M-37.95 3.0 L-41.25 4.95 Q-45.2 -2.85 -45.25 -12.3 -45.2 -25.6 -37.35 -35.7 L-36.55 -35.05 Q-37.9 -32.95 -38.65 -30.65 -39.05 -29.55 -39.05 -28.4 L-39.15 -27.85 Q-39.35 -26.2 -39.8 -24.7 -40.0 -23.2 -40.3 -22.3 L-40.8 -21.2 Q-41.65 -19.05 -41.3 -16.65 L-41.2 -16.1 -41.1 -15.4 -40.25 -13.2 Q-39.85 -12.35 -39.95 -11.3 -40.15 -6.25 -39.4 -1.55 L-39.2 -1.05 -38.25 1.8 -37.95 3.0" fill="#99cc00" fill-rule="evenodd" stroke="none"/>
    <path d="M18.55 -29.6 L9.7 -24.5 9.6 -25.3 9.55 -25.7 9.3 -28.2 9.3 -28.4 8.85 -31.45 Q8.9 -32.75 7.8 -33.1 L7.4 -33.3 Q6.95 -34.05 6.65 -35.3 L6.6 -35.55 6.0 -37.95 Q5.4 -40.3 3.65 -41.55 L3.5 -41.85 3.3 -42.05 2.75 -42.7 Q1.95 -44.6 0.1 -45.4 L-0.7 -45.8 -1.1 -45.85 Q-1.55 -46.3 -2.15 -46.4 L-2.4 -46.5 -3.6 -47.3 -4.05 -47.7 -6.2 -48.65 -5.95 -48.25 -5.5 -47.5 -3.6 -43.5 Q-3.2 -42.85 -3.2 -42.0 -2.65 -41.1 -2.5 -39.85 L-2.4 -39.15 -2.15 -37.2 -2.15 -36.75 -2.05 -35.5 -1.35 -30.7 -0.7 -29.05 -0.75 -28.55 Q-0.8 -27.25 -0.3 -26.1 L-0.15 -25.65 -0.05 -23.0 0.1 -21.6 Q-0.05 -20.2 0.15 -18.95 L-7.4 -14.65 -7.25 -18.55 Q-7.2 -20.95 -7.85 -23.0 L-8.25 -25.65 Q-8.25 -28.15 -8.55 -30.5 L-8.8 -32.9 Q-8.85 -35.7 -8.3 -38.35 L-8.25 -39.1 Q-8.1 -41.6 -8.1 -44.15 L-8.25 -46.0 -8.35 -49.9 -6.7 -49.1 -7.6 -50.15 -7.55 -50.65 -6.9 -50.65 -6.1 -50.65 -5.7 -50.65 -4.5 -50.55 -1.7 -50.25 -1.95 -49.15 -1.15 -48.8 Q-0.7 -48.55 -0.15 -48.4 L1.5 -47.75 Q2.45 -47.2 3.45 -46.8 L5.5 -45.85 Q7.8 -45.05 9.25 -42.95 9.7 -42.15 10.55 -41.5 L10.85 -41.1 12.1 -39.4 13.15 -37.35 15.8 -33.55 16.9 -32.05 Q17.5 -31.0 18.2 -30.25 L18.45 -29.8 18.55 -29.6 M-15.75 -9.8 L-26.5 -3.6 Q-26.1 -8.5 -26.25 -13.45 L-26.2 -18.55 -26.1 -19.2 -25.95 -20.9 -25.9 -21.6 -25.7 -23.05 -25.7 -23.35 Q-24.55 -26.0 -24.35 -29.05 L-24.15 -29.75 Q-23.8 -32.05 -23.0 -34.15 L-21.35 -39.35 -20.8 -40.8 -20.15 -42.3 Q-19.7 -43.5 -18.5 -44.55 L-18.2 -45.05 -17.55 -47.2 -17.25 -47.85 -16.1 -49.0 -15.7 -49.4 -15.2 -49.8 -12.15 -50.25 -9.75 -50.45 -9.8 -49.85 Q-10.75 -49.95 -11.0 -48.9 L-11.2 -48.75 Q-12.8 -47.15 -13.4 -44.9 -13.55 -44.05 -13.8 -43.65 L-13.75 -43.2 Q-13.7 -42.7 -13.95 -42.4 L-14.35 -41.55 -14.7 -39.85 -14.95 -38.4 -15.15 -36.2 -15.3 -34.3 -15.55 -31.7 -16.1 -26.85 -16.25 -24.7 -15.95 -17.55 -15.9 -17.05 -15.75 -11.8 -15.75 -9.8 M-35.95 1.85 L-37.95 3.0 -38.25 1.8 -39.2 -1.05 -39.4 -1.55 Q-40.15 -6.25 -39.95 -11.3 -39.85 -12.35 -40.25 -13.2 L-41.1 -15.4 -41.2 -16.1 -41.3 -16.65 Q-41.65 -19.05 -40.8 -21.2 L-40.3 -22.3 Q-40.0 -23.2 -39.8 -24.7 -39.35 -26.2 -39.15 -27.85 L-39.05 -28.4 Q-39.05 -29.55 -38.65 -30.65 -37.9 -32.95 -36.55 -35.05 L-37.35 -35.7 -34.0 -39.35 Q-31.6 -41.7 -29.0 -43.55 L-25.0 -46.2 -24.55 -46.45 Q-21.35 -48.1 -17.8 -49.05 -18.2 -48.45 -18.65 -48.35 L-19.6 -47.95 -20.55 -47.8 -20.95 -47.7 -24.15 -45.7 -24.55 -45.3 Q-26.75 -43.45 -28.0 -41.3 -29.2 -39.3 -29.75 -37.2 -30.55 -34.85 -30.8 -32.45 L-31.0 -31.75 -32.6 -27.2 -32.95 -25.0 -33.1 -23.05 -33.05 -22.6 -33.4 -20.4 -33.6 -19.85 -35.2 -17.25 Q-35.85 -16.2 -35.9 -14.95 -35.95 -13.15 -35.55 -11.55 -35.25 -10.35 -35.1 -8.95 -34.95 -6.35 -35.55 -4.15 L-35.75 -3.5 -36.05 -2.25 -36.0 1.2 -35.95 1.85" fill="#739a00" fill-rule="evenodd" stroke="none"/>
    <path d="M-1.7 -50.25 Q10.85 -48.8 20.25 -39.35 23.05 -36.6 25.2 -33.45 L18.55 -29.6 9.7 -24.5 0.15 -18.95 -7.4 -14.65 -15.75 -9.8 -26.5 -3.6 -35.95 1.85 M-37.95 3.0 L-41.25 4.95 Q-45.2 -2.85 -45.25 -12.3 -45.2 -25.6 -37.35 -35.7 L-34.0 -39.35 Q-31.6 -41.7 -29.0 -43.55 L-25.0 -46.2 -24.55 -46.45 Q-21.35 -48.1 -17.8 -49.05 M-15.2 -49.8 L-12.15 -50.25 -9.75 -50.45 M-7.55 -50.65 L-6.9 -50.65 -6.1 -50.65 -5.7 -50.65 -4.5 -50.55 -1.7 -50.25" fill="none" stroke="#000000" stroke-linecap="round" stroke-linejoin="round" stroke-width="4.0"/>
  </g>
</svg>
