<?xml version="1.0" encoding="UTF-8" standalone="no"?>
<svg xmlns:xlink="http://www.w3.org/1999/xlink" height="70.0px" width="80.85px" xmlns="http://www.w3.org/2000/svg">
  <g transform="matrix(1.0, 0.0, 0.0, 1.0, 50.4, 64.9)">
    <path d="M13.95 -38.05 L17.8 -33.45 Q-11.2 -20.05 -37.2 -1.65 L-38.8 -7.05 Q-14.85 -24.45 13.95 -38.05" fill="#99ccff" fill-rule="evenodd" stroke="none"/>
    <path d="M13.95 -38.05 Q-14.85 -24.45 -38.8 -7.05 L-48.4 -38.85 Q-30.2 -53.8 -6.8 -62.9 L13.95 -38.05" fill="#e3c295" fill-rule="evenodd" stroke="none"/>
    <path d="M-38.8 -7.05 L-37.2 -1.65 Q-11.2 -20.05 17.8 -33.45 L13.95 -38.05 -6.8 -62.9 Q-30.2 -53.8 -48.4 -38.85 L-38.8 -7.05 M17.8 -33.45 L28.45 -39.45 M-37.2 -1.65 L-45.35 3.1" fill="none" stroke="#000000" stroke-linecap="round" stroke-linejoin="round" stroke-width="4.0"/>
    <path d="M13.95 -38.05 Q-14.85 -24.45 -38.8 -7.05" fill="none" stroke="#000000" stroke-linecap="round" stroke-linejoin="round" stroke-width="2.0"/>
  </g>
</svg>
