<?xml version="1.0" encoding="UTF-8" standalone="no"?>
<svg xmlns:xlink="http://www.w3.org/1999/xlink" height="70.35px" width="90.05px" xmlns="http://www.w3.org/2000/svg">
  <g transform="matrix(1.0, 0.0, 0.0, 1.0, 72.25, 58.0)">
    <path d="M7.25 -41.05 L8.0 -42.1 Q8.85 -42.45 10.0 -41.55 L14.35 -35.7 Q16.6 -32.65 15.3 -30.1 -1.65 -8.65 -18.95 7.7 -27.2 13.3 -35.35 7.05 -36.8 0.55 -41.15 -5.4 -36.4 -2.35 -27.95 -7.05 -6.3 -20.6 7.25 -41.05 -6.3 -20.6 -27.95 -7.05 -36.4 -2.35 -41.15 -5.4 -57.9 -6.65 -52.15 -17.0 -55.05 -16.0 -58.25 -16.35 -63.75 -17.0 -67.25 -21.4 -70.75 -25.8 -70.15 -31.3 -69.5 -36.9 -65.1 -40.4 -60.7 -43.9 -55.2 -43.25 L-52.15 -42.55 Q-33.4 -57.75 -19.45 -55.75 -5.75 -54.75 7.25 -41.05 M-40.7 -24.15 L-43.65 -26.15 Q-44.8 -22.05 -48.25 -19.25 -50.1 -17.75 -52.15 -17.0 -50.1 -17.75 -48.25 -19.25 -44.8 -22.05 -43.65 -26.15 L-49.95 -30.5 Q-60.3 -34.45 -53.05 -41.85 -52.55 -42.15 -52.15 -42.55 -52.55 -42.15 -53.05 -41.85 -60.3 -34.45 -49.95 -30.5 L-43.65 -26.15 -40.7 -24.15" fill="#333333" fill-rule="evenodd" stroke="none"/>
    <path d="M-41.15 -5.4 Q-36.8 0.55 -35.35 7.05 -27.2 13.3 -18.95 7.7 -1.65 -8.65 15.3 -30.1 16.6 -32.65 14.35 -35.7 L10.0 -41.55 Q8.85 -42.45 8.0 -42.1 L7.25 -41.05 Q-6.3 -20.6 -27.95 -7.05 -36.4 -2.35 -41.15 -5.4 -57.9 -6.65 -52.15 -17.0 -55.05 -16.0 -58.25 -16.35 -63.75 -17.0 -67.25 -21.4 -70.75 -25.8 -70.15 -31.3 -69.5 -36.9 -65.1 -40.4 -60.7 -43.9 -55.2 -43.25 L-52.15 -42.55 Q-33.4 -57.75 -19.45 -55.75 -5.75 -54.75 7.25 -41.05 M-52.15 -17.0 Q-50.1 -17.75 -48.25 -19.25 -44.8 -22.05 -43.65 -26.15 L-49.95 -30.5 Q-60.3 -34.45 -53.05 -41.85 -52.55 -42.15 -52.15 -42.55 M-43.65 -26.15 L-40.7 -24.15" fill="none" stroke="#000000" stroke-linecap="round" stroke-linejoin="round" stroke-width="4.0"/>
  </g>
</svg>
