<?xml version="1.0" encoding="UTF-8" standalone="no"?>
<svg xmlns:xlink="http://www.w3.org/1999/xlink" height="67.35px" width="120.95px" xmlns="http://www.w3.org/2000/svg">
  <g transform="matrix(1.0, 0.0, 0.0, 1.0, 95.05, 63.1)">
    <path d="M-40.45 -22.0 L-45.5 -37.9 Q-47.1 -42.85 -42.05 -44.45 L8.7 -60.7 Q13.75 -62.3 15.35 -57.35 L23.9 -30.45 -36.95 -11.0 -38.65 -16.55 -40.45 -22.0" fill="#999999" fill-rule="evenodd" stroke="none"/>
    <path d="M-40.45 -22.0 L-38.65 -16.55 -44.1 -14.75 -45.9 -20.2 -40.45 -22.0" fill="#cccccc" fill-rule="evenodd" stroke="none"/>
    <path d="M-43.75 -12.5 L-89.85 2.25 -93.05 -7.6 -46.95 -22.35 -43.75 -12.5" fill="#333333" fill-rule="evenodd" stroke="none"/>
    <path d="M-38.65 -16.55 L-36.95 -11.0 23.9 -30.45 15.35 -57.35 Q13.75 -62.3 8.7 -60.7 L-42.05 -44.45 Q-47.1 -42.85 -45.5 -37.9 L-40.45 -22.0 -38.65 -16.55 -44.1 -14.75 -45.9 -20.2 -40.45 -22.0 M-43.75 -12.5 L-89.85 2.25 -93.05 -7.6 -46.95 -22.35 -43.75 -12.5 Z" fill="none" stroke="#000000" stroke-linecap="round" stroke-linejoin="round" stroke-width="4.0"/>
  </g>
</svg>
