<?xml version="1.0" encoding="UTF-8" standalone="no"?>
<svg xmlns:xlink="http://www.w3.org/1999/xlink" height="26.55px" width="26.05px" xmlns="http://www.w3.org/2000/svg">
  <g transform="matrix(1.0, 0.0, 0.0, 1.0, 13.05, 13.3)">
    <path d="M-2.8 -3.25 Q1.4 -7.1 7.2 -7.1 9.9 -7.1 12.25 -6.25 L8.0 -2.15 Q2.6 -3.75 -2.8 -3.25" fill="#00ff00" fill-rule="evenodd" stroke="none"/>
    <path d="M-7.6 -8.25 Q-8.25 -4.7 -12.3 -4.05 -11.9 -7.25 -7.6 -8.25 -6.65 -11.85 -2.8 -12.55 -4.1 -8.55 -7.6 -8.25" fill="#ffffff" fill-rule="evenodd" stroke="none"/>
    <path d="M-2.8 8.3 L-7.1 12.5 Q-7.8 10.35 -7.8 7.9 -7.8 1.7 -3.4 -2.7 L-2.8 -3.25 Q-4.2 2.55 -2.8 8.3" fill="#ff0000" fill-rule="evenodd" stroke="none"/>
    <path d="M8.0 -2.15 L3.7 2.05 -2.8 -3.25 Q2.6 -3.75 8.0 -2.15" fill="#ffff00" fill-rule="evenodd" stroke="none"/>
    <path d="M3.7 2.05 L-2.8 8.3 Q-4.2 2.55 -2.8 -3.25 L3.7 2.05" fill="#ff9900" fill-rule="evenodd" stroke="none"/>
    <path d="M-2.8 -3.25 Q1.4 -7.1 7.2 -7.1 9.9 -7.1 12.25 -6.25 L8.0 -2.15 3.7 2.05 -2.8 8.3 -7.1 12.5 Q-7.8 10.35 -7.8 7.9 -7.8 1.7 -3.4 -2.7 L-2.8 -3.25 -7.6 -8.25 Q-8.25 -4.7 -12.3 -4.05 -11.9 -7.25 -7.6 -8.25 -6.65 -11.85 -2.8 -12.55 -4.1 -8.55 -7.6 -8.25" fill="none" stroke="#000000" stroke-linecap="round" stroke-linejoin="round" stroke-width="1.5"/>
    <path d="M-2.8 -3.25 Q2.6 -3.75 8.0 -2.15 M-2.8 -3.25 Q-4.2 2.55 -2.8 8.3 M3.7 2.05 L-2.8 -3.25" fill="none" stroke="#000000" stroke-linecap="round" stroke-linejoin="round" stroke-width="1.0"/>
  </g>
</svg>
