<?xml version="1.0" encoding="UTF-8" standalone="no"?>
<svg xmlns:xlink="http://www.w3.org/1999/xlink" height="65.7px" width="86.05px" xmlns="http://www.w3.org/2000/svg">
  <g transform="matrix(1.0, 0.0, 0.0, 1.0, 43.1, 32.8)">
    <path d="M-40.0 10.25 L-40.0 -25.3 Q-39.85 -29.85 -35.3 -30.0 L35.4 -30.0 Q39.9 -29.85 40.05 -25.3 38.75 11.7 24.0 17.75 L-27.25 17.75 Q-36.35 16.7 -40.0 10.25" fill="#998357" fill-rule="evenodd" stroke="none"/>
    <path d="M-40.0 10.25 Q-36.35 16.7 -27.25 17.75 L24.0 17.75 Q38.75 11.7 40.05 -25.3 L40.05 20.5 34.0 30.0 -35.3 30.0 Q-39.85 29.85 -40.0 25.35 L-40.0 10.25" fill="#806e49" fill-rule="evenodd" stroke="none"/>
    <path d="M19.6 29.3 L20.0 30.0 M20.25 -12.5 L21.2 -14.25 22.3 -15.75 Q22.95 -16.3 23.25 -17.0 L23.5 -19.0 23.5 -20.95 23.3 -23.05 23.15 -25.15 23.15 -27.0 23.35 -28.55 Q23.5 -29.25 23.25 -30.0 M26.25 1.5 L26.15 -0.75 26.2 -2.75 26.05 -4.5 25.7 -6.45 25.3 -8.35 24.85 -10.15 24.15 -12.2 23.7 -14.1 23.45 -15.3 23.25 -17.0 M-20.0 -29.5 L-20.25 -30.0 M-15.5 -20.0 L-16.5 -21.8 -17.35 -23.5 -18.05 -25.2 -19.0 -27.1 -19.7 -28.65 -20.0 -29.5 M-40.25 7.75 L-38.55 7.8 -37.0 7.7 -34.95 7.65 -33.05 7.7 -31.0 7.85 -28.95 7.85 -27.0 7.85 -24.85 8.05 -22.85 8.0 -21.1 7.75 Q-20.15 7.65 -19.15 7.15 L-16.95 6.75 -15.2 6.35 -13.45 5.4 Q-12.25 4.85 -11.15 4.9 -10.05 5.0 -9.55 4.35 -9.05 3.7 -7.8 3.45 L-5.75 3.25 Q-4.55 2.8 -4.1 2.3 L-3.15 1.5 Q-2.65 1.25 -1.65 0.4 -0.6 -0.45 0.25 -0.5 M2.75 6.75 Q1.4 6.6 0.6 6.1 L-1.0 5.2 -2.9 4.5 Q-4.05 4.2 -4.3 3.9 -4.55 3.6 -5.75 3.25 M-16.5 14.0 L-17.4 15.8 -18.4 17.85 Q-18.95 18.9 -18.95 19.7 L-18.4 21.05 -17.35 22.55 -16.35 24.3 -15.3 25.95 -14.1 27.65 -13.25 28.85 -12.5 30.05 M19.6 29.3 L19.45 28.95 18.8 27.8 17.75 26.35 16.5 24.65 15.55 22.95 14.7 21.0 13.75 19.25" fill="none" stroke="#000000" stroke-linecap="round" stroke-linejoin="round" stroke-width="1.0"/>
    <path d="M-20.0 -29.5 L-13.2 -28.85 -4.95 -29.35 2.85 -29.85 11.25 -29.55 19.35 -30.05 Q22.7 -30.95 27.75 -30.05 32.85 -29.15 34.45 -29.9 36.1 -30.65 35.4 -30.0 36.85 -28.55 38.95 -24.9 41.1 -21.25 40.8 -16.8 L40.0 -8.15 Q39.45 -3.9 40.4 0.0 41.4 3.95 40.5 7.55 39.65 11.15 40.0 15.0 40.4 18.85 39.65 22.7 38.9 26.55 35.3 29.15 31.75 31.75 28.1 30.05 24.5 28.4 20.35 29.15 L19.6 29.3 13.4 30.0 5.65 30.6 Q0.7 31.1 -3.3 30.55 L-11.2 30.0 -12.5 30.05 -19.75 30.65 -28.3 30.2 -35.2 28.5 Q-38.25 27.95 -39.85 25.2 -41.4 22.5 -41.05 17.3 L-40.3 8.25 -40.25 7.75 Q-39.9 4.15 -40.15 0.6 -40.35 -3.15 -39.75 -6.85 -39.1 -10.5 -39.6 -14.7 -40.05 -18.9 -39.55 -23.5 -39.05 -28.1 -36.3 -29.2 -33.5 -30.3 -29.7 -30.7 -25.9 -31.05 -21.65 -29.9 L-20.0 -29.5 Z" fill="none" stroke="#000000" stroke-linecap="round" stroke-linejoin="round" stroke-width="4.0"/>
  </g>
</svg>
