<?xml version="1.0" encoding="UTF-8" standalone="no"?>
<svg xmlns:xlink="http://www.w3.org/1999/xlink" height="113.2px" width="141.3px" xmlns="http://www.w3.org/2000/svg">
  <g transform="matrix(1.0, 0.0, 0.0, 1.0, 70.65, 56.6)">
    <path d="M46.05 -8.15 Q59.15 -29.4 46.45 -51.4 48.05 -55.2 51.35 -54.5 82.8 -23.85 57.1 7.4 47.45 2.05 46.05 -8.15 M-34.45 44.0 Q-74.5 37.0 -67.65 -7.85 -63.4 -11.95 -60.95 -8.95 -57.3 22.4 -36.6 24.0 L-35.2 23.35 Q-30.4 32.75 -32.8 44.3 L-34.45 44.0" fill="#ffffff" fill-rule="evenodd" stroke="none"/>
    <path d="M-19.05 18.8 Q-14.9 9.6 -7.3 3.15 4.2 17.6 10.15 35.35 -2.25 41.0 -17.15 42.2 -13.55 17.95 -19.05 18.8 M12.6 -4.15 Q20.8 -4.7 29.0 -0.25 38.3 4.8 47.6 16.35 40.0 24.2 31.5 26.95 24.4 9.0 12.6 -4.15" fill="#c2996b" fill-rule="evenodd" stroke="none"/>
    <path d="M48.9 19.15 L52.6 27.2 Q53.3 29.85 48.35 32.95 21.75 49.85 -8.55 54.3 -16.15 55.65 -18.2 50.45 L-17.15 42.2 Q-2.25 41.0 10.15 35.35 4.2 17.6 -7.3 3.15 -0.15 -5.35 11.85 -4.95 L12.6 -4.15 Q24.4 9.0 31.5 26.95 40.0 24.2 47.6 16.35 L48.9 19.15" fill="#694721" fill-rule="evenodd" stroke="none"/>
    <path d="M57.1 7.4 L60.1 9.05 Q57.0 17.65 50.55 19.9 L48.9 19.15 47.6 16.35 Q38.3 4.8 29.0 -0.25 34.1 -6.1 40.95 -9.95 44.7 -12.0 46.05 -8.15 47.45 2.05 57.1 7.4 M-18.2 50.45 Q-34.45 48.55 -34.45 44.0 L-32.8 44.3 Q-30.4 32.75 -35.2 23.35 L-36.6 24.0 Q-37.1 21.85 -32.05 20.05 L-19.05 18.8 Q-13.55 17.95 -17.15 42.2 L-18.2 50.45" fill="#786054" fill-rule="evenodd" stroke="none"/>
    <path d="M46.05 -8.15 Q59.15 -29.4 46.45 -51.4 48.05 -55.2 51.35 -54.5 82.8 -23.85 57.1 7.4 L60.1 9.05 Q57.0 17.65 50.55 19.9 L48.9 19.15 52.6 27.2 Q53.3 29.85 48.35 32.95 21.75 49.85 -8.55 54.3 -16.15 55.65 -18.2 50.45 -34.45 48.55 -34.45 44.0 -74.5 37.0 -67.65 -7.85 -63.4 -11.95 -60.95 -8.95 -57.3 22.4 -36.6 24.0 -37.1 21.85 -32.05 20.05 L-19.05 18.8 Q-14.9 9.6 -7.3 3.15 -0.15 -5.35 11.85 -4.95 L12.6 -4.15 Q20.8 -4.7 29.0 -0.25 34.1 -6.1 40.95 -9.95 44.7 -12.0 46.05 -8.15 M-35.2 23.35 L-36.6 24.0 M-34.45 44.0 L-32.8 44.3" fill="none" stroke="#000000" stroke-linecap="round" stroke-linejoin="round" stroke-width="4.0"/>
    <path d="M46.05 -8.15 Q47.45 2.05 57.1 7.4 M47.6 16.35 L48.9 19.15 M47.6 16.35 Q40.0 24.2 31.5 26.95 24.4 9.0 12.6 -4.15 M47.6 16.35 Q38.3 4.8 29.0 -0.25 M-32.8 44.3 Q-30.4 32.75 -35.2 23.35 M-17.15 42.2 Q-13.55 17.95 -19.05 18.8 M-17.15 42.2 L-18.2 50.45 M-7.3 3.15 Q4.2 17.6 10.15 35.35 -2.25 41.0 -17.15 42.2" fill="none" stroke="#000000" stroke-linecap="round" stroke-linejoin="round" stroke-width="1.0"/>
  </g>
</svg>
