<?xml version="1.0" encoding="UTF-8" standalone="no"?>
<svg xmlns:xlink="http://www.w3.org/1999/xlink" height="65.5px" width="86.2px" xmlns="http://www.w3.org/2000/svg">
  <g transform="matrix(1.0, 0.0, 0.0, 1.0, 43.05, 32.7)">
    <path d="M-40.0 10.25 L-40.0 -24.7 -30.35 -30.0 35.4 -30.0 Q39.9 -29.85 40.05 -25.3 38.75 11.7 24.0 17.75 L-27.25 17.75 Q-36.35 16.7 -40.0 10.25" fill="#998357" fill-rule="evenodd" stroke="none"/>
    <path d="M-40.0 10.25 Q-36.35 16.7 -27.25 17.75 L24.0 17.75 Q38.75 11.7 40.05 -25.3 L40.05 25.35 Q39.9 29.85 35.4 30.0 L-32.95 30.0 -40.0 23.7 -40.0 10.25" fill="#806e49" fill-rule="evenodd" stroke="none"/>
    <path d="M39.15 14.55 L40.05 14.5 M27.75 -13.75 Q26.95 -13.5 26.15 -12.7 25.35 -11.9 24.45 -11.4 23.6 -10.9 22.55 -11.15 L20.6 -11.2 18.4 -11.0 16.65 -11.1 14.65 -10.9 13.15 -10.95 12.5 -11.0 M30.5 -2.25 L32.65 -2.45 34.45 -2.55 36.6 -2.15 38.1 -1.9 40.05 -2.25 M-38.75 -24.65 L-39.6 -25.05 -40.0 -25.3 M-25.5 -13.0 L-26.3 -14.95 -27.05 -16.15 -28.0 -17.75 -29.6 -19.05 Q-30.25 -19.8 -31.1 -20.05 -31.9 -20.3 -32.8 -21.0 L-34.55 -22.3 -36.6 -23.5 -38.5 -24.5 -38.75 -24.65 M-12.55 29.95 Q-13.0 29.45 -12.55 29.1 -12.1 28.75 -12.2 27.75 L-12.4 25.8 -12.65 23.75 Q-12.75 22.75 -12.5 21.75 -12.25 20.75 -12.3 19.75 L-12.45 17.95 -12.5 15.8 -12.3 13.65 -12.0 11.9 Q-11.9 11.0 -11.2 10.35 -10.45 9.75 -9.85 8.6 L-10.0 6.75 Q-10.1 5.6 -9.85 5.1 -9.55 4.65 -9.85 3.5 M-21.25 -17.75 L-23.35 -17.6 -25.15 -17.85 -26.65 -18.05 -28.0 -17.75 M0.0 -13.0 Q-0.35 -12.1 -1.0 -11.6 -1.65 -11.1 -1.7 -10.55 -1.7 -9.95 -3.0 -8.6 L-2.65 -6.55 -2.0 -4.8 Q-1.5 -3.8 -1.85 -3.1 L-2.8 -1.25 Q-3.4 -0.1 -3.95 0.5 L-4.95 1.9 -6.3 3.5 -7.55 5.1 -8.45 6.75 -9.1 8.0 Q-9.25 8.4 -9.85 8.6 M-4.5 -14.25 L-4.15 -12.1 -3.8 -10.95 -3.0 -8.6 M-34.75 6.5 L-32.75 6.45 -31.45 6.6 -30.0 6.5 M8.0 8.5 Q8.85 9.3 9.65 9.9 10.45 10.5 11.35 10.8 12.25 11.15 13.0 11.75 L14.45 13.05 Q15.1 13.8 16.05 14.05 L18.15 14.25 20.5 14.1 22.45 14.15 24.25 14.3 26.45 14.5 28.4 14.55 30.25 14.7 32.3 14.65 34.3 14.25 36.25 14.35 37.55 14.55 39.15 14.55" fill="none" stroke="#000000" stroke-linecap="round" stroke-linejoin="round" stroke-width="1.0"/>
    <path d="M-38.75 -24.65 Q-37.1 -27.95 -35.45 -29.2 -33.45 -30.65 -29.05 -30.35 -24.6 -30.05 -21.95 -30.5 -19.25 -30.9 -14.5 -30.55 L-5.75 -30.1 3.1 -29.75 Q7.95 -29.45 11.9 -29.55 L18.9 -30.15 Q22.0 -30.6 26.15 -30.0 L33.9 -29.0 Q37.5 -28.65 38.3 -27.2 39.15 -25.75 40.05 -25.3 L40.1 -16.85 39.85 -9.25 Q39.7 -5.25 40.6 -1.3 41.55 2.65 40.8 6.5 L39.25 14.1 39.15 14.55 Q38.45 18.05 38.35 21.1 38.3 24.4 36.1 27.2 33.95 30.05 30.6 29.5 27.3 28.95 22.7 29.65 L14.35 30.15 6.2 29.5 Q1.8 29.1 -2.55 29.4 L-10.05 29.9 -12.55 29.95 -17.85 29.6 Q-22.5 29.15 -26.55 30.35 -30.6 31.55 -33.85 29.65 -37.05 27.8 -38.75 25.35 -40.4 22.95 -40.15 18.3 -39.9 13.65 -40.6 9.1 -41.3 4.6 -40.5 0.8 -39.7 -3.0 -39.9 -7.45 -40.05 -11.85 -40.85 -15.15 -41.65 -18.4 -39.55 -23.05 L-38.75 -24.65 Z" fill="none" stroke="#000000" stroke-linecap="round" stroke-linejoin="round" stroke-width="4.0"/>
  </g>
</svg>
